<svg width="1350" height="520" viewBox="0 0 1350 520" fill="none" xmlns="http://www.w3.org/2000/svg">
<path d="M955.349 114.832L955.484 116.4L958.808 116.113C958.719 115.07 959.065 113.535 959.847 111.51L959.596 108.598C958.012 108.734 956.595 110.814 955.349 114.832ZM923.678 38.796L923.427 35.883L918.678 36.293L918.929 39.205L923.678 38.796ZM831.981 210.545C831.75 207.856 823.341 197.296 806.764 178.864C806.468 175.431 812.168 170.352 823.871 163.623L857.252 134.568C864.722 125.048 869.135 109.621 870.489 88.29L870.063 83.361C868.79 68.576 858.032 56.639 837.792 47.55C825.765 39.41 804.172 34.952 773.005 34.174C747.199 36.397 713.545 45.616 672.041 61.83C660.626 70.036 647.618 78.231 633.012 86.408L633.224 88.872C634.174 88.79 635.479 88.226 637.145 87.18C638.885 87.03 639.828 87.777 639.97 89.419L642.486 88.074L643.673 87.972L643.769 89.092C643.885 90.436 634.839 97.461 616.638 110.161L618.057 112.747L616.87 112.85L613.904 111.751C613.981 112.647 612.751 113.205 610.221 113.422L610.317 114.543L613.258 118.126C612.308 118.208 610.922 117.876 609.105 117.13C604.932 117.489 600.802 119.764 596.717 123.932L598.449 116.487C604.583 90.141 608.738 66.871 610.911 46.67L610.607 45.356C606.389 42.639 602.34 38.885 598.458 34.089C598.555 30.991 598.554 29.22 598.453 28.782L598.199 27.687L597.038 27.956C583.849 47.781 558.405 81.598 520.706 129.405C492.045 163.429 477.254 182.316 476.33 186.067C464.612 198.167 459.044 205.457 459.619 207.938C456.483 209.897 455.169 211.968 455.676 214.159C454.748 214.374 454.182 214.043 453.979 213.167C448.998 221.244 441.552 226.43 431.647 228.722L421.2 231.141C419.807 231.464 419.14 232.465 419.203 234.142L419.508 235.456L423.455 234.543L423.709 235.638L414.957 239.049L399.399 242.65L391.2 243.163C390.01 244.362 397.684 243.047 394.745 243.727L384.528 246.092C378.335 247.526 374.953 247.003 374.378 244.518L373.217 244.787C373.461 245.841 373.487 246.695 373.321 247.372L372.747 244.896L364.502 246.804C363.874 242.966 352.804 229.168 331.283 205.387C330.885 200.76 338.444 194.089 353.961 185.379L397.769 146.848C407.529 134.272 413.365 114.06 415.271 86.211L414.711 79.714C413.026 60.15 398.82 44.296 372.098 32.155C356.346 21.476 327.939 15.725 286.881 14.897C252.842 17.83 208.507 29.852 153.868 50.957C138.859 61.88 121.769 72.68 102.594 83.36L102.884 86.72C104.149 86.611 105.844 85.94 107.973 84.702C110.188 84.511 111.387 85.462 111.567 87.552L114.994 85.677L116.656 85.533L116.792 87.102C116.933 88.747 104.974 98.05 80.92 115.018L82.853 118.011L81.191 118.154L77.493 116.893C77.584 117.939 75.885 118.611 72.404 118.911L72.559 120.703L76.526 125.101C75.257 125.21 73.472 124.838 71.167 123.983C63.408 124.651 55.763 130.275 48.219 140.855L50.152 143.848C56.656 137.871 60.458 134.836 61.568 134.74L61.992 139.669C60.883 139.764 59.188 140.439 56.903 141.687L61.025 147.877C68.905 139.376 77.606 132.082 87.129 125.993C91.861 127.243 94.299 128.686 94.44 130.328L98.002 130.021C123.788 110.951 149.314 97.164 174.58 88.668L174.87 92.028C170.212 99.052 167.011 102.635 165.271 102.785C165.477 105.176 166.294 107.288 167.73 109.118C168.104 113.452 156.642 142.424 133.354 196.035C80.457 320.658 36.006 412.809 0 472.48C0.102 473.674 0.801 475.267 2.086 477.265C10.994 475.144 16.634 473 18.997 470.843L20.896 470.68L21.186 474.04L24.511 473.753L27.937 471.878C28.027 472.922 29.182 473.351 31.397 473.16L31.687 476.519C31.969 479.803 30.095 484.855 26.055 491.674C22.421 495.747 18.535 504.359 14.405 517.504L14.54 519.072L17.865 518.785C32.263 502.649 43.188 486.887 50.632 471.502C92.629 459.156 124.679 447.067 146.786 435.232C169.108 433.308 186.07 427.482 197.672 417.757L197.517 415.965L189.123 418.494L187.223 418.657L187.069 416.865C203.442 414.4 214.768 410.716 221.044 405.812C252.898 381.254 276.994 363.832 293.333 353.544C326.872 328.928 348.586 304.963 358.507 281.648C360.298 281.238 362.146 280.812 364.068 280.368C368.762 280.204 371.417 280.051 372.034 279.908C371.832 279.032 372.195 278.486 373.123 278.272C380.604 277.462 377.001 278.758 381.797 277.648L394.352 274.742L396.431 274.261L395.394 274.903C396.817 275.069 398.331 274.975 399.946 274.601L400.808 278.326L343.465 369.437L330.747 385.305L324.557 406.125L325.718 405.856L331.966 403.255L329.924 411.344L330.482 413.754L332.201 415.895C331.428 416.074 331.141 416.602 331.344 417.478L331.648 418.792L334.203 418.201C337.998 414.863 339.589 411.876 338.98 409.248C343.068 409.997 345.808 410.206 347.201 409.884L347.505 411.198C345.031 411.771 343.698 413.774 343.512 417.2L343.816 418.513L345.21 418.192C366.055 395.518 416.962 317.824 457.93 265.102C456.612 259.406 477.932 251.471 521.899 241.292L523.292 240.97C524.882 247.836 521.49 264.546 513.122 291.098C507.696 307.126 505.157 315.871 505.494 317.329C498.52 338.641 495.237 350.169 495.642 351.921L480.081 403.068C469.995 429.251 462.266 456.813 456.897 485.752C457.825 485.537 459.24 485.671 461.148 486.153L463.398 484.247C463.601 485.123 464.167 485.454 465.096 485.239L464.234 481.514L471.04 481.324C473.05 480.859 474.746 478.309 476.122 473.686C475.838 466.827 477.243 463.04 480.342 462.323C484.544 445.962 487.113 437.675 488.042 437.46C491.936 421.171 494.843 411.883 496.76 409.593C502.616 388.389 506.937 377.464 509.723 376.82L510.332 379.449L506.061 390.593C498.594 423.862 490.983 450.167 483.227 469.503L485.458 479.142L486.851 478.82C505.479 438.809 532.241 359.607 567.139 241.208C568.158 230.816 573.139 222.739 582.08 216.977L580.129 214.89L579.876 213.794C583.899 212.863 586.715 211.288 588.323 209.069C588.12 208.193 584.629 206.849 577.847 205.032L595.209 130.416C598.986 127.004 601.227 125.252 601.907 125.194L602.235 129.002C601.285 129.084 599.977 129.648 598.314 130.694L601.588 135.377C607.563 128.846 614.096 123.241 621.192 118.567C624.788 119.611 626.642 120.732 626.745 121.925L629.357 121.7C649.16 107.207 668.598 96.805 687.671 90.496L687.884 92.961C684.349 98.23 681.949 100.919 680.684 101.028C680.839 102.821 681.374 104.432 682.296 105.855C682.578 109.142 673.951 131.173 656.413 171.954C616.23 266.444 582.466 336.383 555.116 381.767C555.193 382.664 555.777 383.89 556.869 385.454C563.587 383.821 567.83 382.175 569.601 380.52L570.789 380.417L571.001 382.881L573.85 382.636L576.366 381.291C576.43 382.036 577.334 382.336 579.074 382.186L579.306 384.874C579.512 387.261 578.087 391.072 575.028 396.301C572.107 399.409 569.079 405.915 565.944 415.817L566.06 417.161L568.672 416.935C579.58 404.711 587.876 392.712 593.56 380.939C625.445 371.573 649.774 362.406 666.547 353.435C683.645 351.962 696.578 347.54 705.354 340.162L705.239 338.818L698.706 340.735L697.282 340.857L697.166 339.512C709.605 337.69 718.218 334.916 723.003 331.194C747.233 312.556 765.549 299.317 777.953 291.477C816.197 263.36 834.208 236.384 831.981 210.545ZM825.429 212.238L826.298 222.319C825.079 224.832 823.835 226.142 822.569 226.251L821.083 209.001C823.877 209.966 825.326 211.044 825.429 212.238ZM68.165 130.786L66.502 130.93L66.231 127.793L73.117 127.2L73.253 128.768C72.144 128.864 70.449 129.539 68.165 130.786ZM34.534 467.926C30.555 466.16 26.984 465.417 23.816 465.69L23.391 460.761C23.224 458.819 24.314 457.596 26.663 457.094C28.882 456.904 30.129 458.449 30.413 461.737C36.18 454.618 39.381 451.034 40.012 450.979L43.728 452.464C42.509 462.348 39.443 467.503 34.534 467.926ZM394.644 91.147C392.901 91.297 389.581 86.093 384.687 75.53L384.416 72.394C387.581 72.121 390.901 77.329 394.374 88.011L394.644 91.147ZM389.759 53.879L388.367 57.158L339.482 36.77C372.112 37.873 388.871 43.573 389.759 53.879ZM183.275 231.229L176.388 231.823L176.118 228.686L183.005 228.093L183.275 231.229ZM177.688 124.735L179.35 124.592L179.775 129.521C178.19 129.657 176.08 132.022 173.448 136.611L173.158 133.25C176.343 129.516 177.854 126.678 177.688 124.735ZM163.171 158.936L163.731 165.433L162.069 165.576L161.509 159.079L163.171 158.936ZM155.606 171.098L158.93 170.812C158.599 176.257 157.091 179.095 154.401 179.327L152.739 179.47C154.818 175.831 155.774 173.041 155.606 171.098ZM149.892 188.066L151.792 187.902L151.927 189.47L148.789 194.705L145.465 194.992L145.33 193.424C148.654 193.137 150.175 191.352 149.892 188.066ZM144.279 203.444L143.312 211.652L141.649 211.796L140.955 203.731L144.279 203.444ZM88.161 362.875C85.932 374.051 83.552 379.747 81.021 379.965L80.886 378.397C80.41 372.873 82.835 367.699 88.161 362.875ZM77.884 385.201L78.019 386.768C78.212 389.008 77.203 390.223 74.984 390.414L74.849 388.846C74.682 386.908 75.695 385.692 77.884 385.201ZM74.935 431.495L80.159 431.045L80.313 432.837C79.048 432.946 77.353 433.617 75.224 434.855L71.9 435.141C71.746 433.349 72.759 432.134 74.935 431.495ZM222.907 385.795C193.684 400.2 176.504 409.957 171.363 415.062C139.776 426.056 124.098 432.902 124.329 435.589C96.261 446.732 77.749 454.872 68.78 460.01C66.724 460.187 63.703 459.393 59.723 457.631C59.234 451.953 61.786 447.297 67.371 443.656C72.279 443.233 76.966 443.958 81.433 445.83C86.62 443.126 95.695 440.162 108.657 436.939L108.367 433.579L97.919 434.478C99.202 432.711 109.24 428.009 128.042 420.374L133.267 419.924L133.402 421.492C124.534 422.256 119.584 424.938 118.545 429.543C118.725 431.632 119.921 432.584 122.14 432.393C128.796 428.208 132.093 425.742 132.029 424.997C144.736 422.548 179.834 404.177 237.325 369.884L237.595 373.021C237.711 374.364 232.814 378.622 222.907 385.795ZM134.742 414.832C143.131 414.109 150.339 410.78 156.368 404.844C158.743 404.639 160.021 405.583 160.201 407.673C156.082 408.028 148.247 411.489 136.693 418.049L135.031 418.193L134.742 414.832ZM276.995 305.53L232.878 340.475C200.119 361.955 182.472 372.803 179.942 373.021C127.712 401.748 95.265 416.653 82.602 417.744L80.702 417.908C82.272 412.055 105.522 364.464 150.456 275.132C170.243 273.427 201.426 264.196 244 247.438L254.448 246.537C275.976 244.682 292.041 248.792 302.638 258.86L303.198 265.356C295.271 288.157 286.539 301.548 276.995 305.53ZM190.758 256.99L197.881 256.376L198.017 257.944L190.893 258.558L190.758 256.99ZM290.491 240.047L295.715 239.597C300.537 241.889 303.026 243.932 303.181 245.724L303.316 247.292C298.722 247.688 294.448 245.274 290.491 240.047ZM304.632 159.838C300.001 165.354 287.411 174.715 266.861 187.918C260.053 188.504 234.747 198.358 190.942 217.479C188.78 216.463 186.431 216.062 183.901 216.28L183.63 213.144C183.09 206.871 185.914 198.954 192.11 189.393C195.497 171.35 199.241 161.097 203.335 158.635L239.799 76.504C239.361 71.428 247.158 67.519 263.19 64.784L268.414 64.333L268.82 69.038C284.558 66.631 294.331 65.26 298.13 64.933C327.101 62.437 342.198 68.284 343.42 82.471L346.744 82.184L346.03 73.896L349.592 73.589C358.129 78.27 362.687 83.971 363.266 90.691C363.665 95.322 361.204 101.025 355.889 107.802C353.67 107.993 352.423 106.447 352.14 103.16L348.578 103.467L347.765 113.467C333.074 135.496 322.408 146.796 315.759 147.369C309.766 155.559 306.057 159.715 304.632 159.838ZM327.043 217.263C324.001 215.268 321.608 214.346 319.867 214.496L319.443 209.567L322.767 209.281L330.079 213.616C330.271 215.856 329.259 217.072 327.043 217.263ZM350.231 244.83C353.475 246.161 355.315 247.495 355.768 248.826L354.161 249.198L354.265 249.25C353.954 249.273 353.607 249.326 353.217 249.417L350.792 251.331L350.231 244.83ZM352.407 258.605L352.103 257.292L356.288 256.323L356.593 257.637L352.407 258.605ZM362.543 269.85C366.837 269.182 368.941 268.857 376.894 267.015L377.198 268.33L361.993 271.85C362.183 271.183 362.373 270.516 362.543 269.85ZM377.292 276.155C370.9 276.712 372.334 275.918 362.116 278.283L361.812 276.969L374.562 272.865L380.615 271.464L381.173 273.873C378.538 274.481 380.492 274.491 377.292 276.155ZM390.765 273.037C389.216 273.394 388.084 272.734 387.37 271.053L391.318 270.139C393.019 269.745 394.074 270.424 394.48 272.177L390.765 273.037ZM427.403 233.629L427.098 232.315L433.368 230.863L433.926 233.273L427.403 233.629ZM466.508 473.378C466.908 471.591 467.01 470.262 466.807 469.385L468.2 469.063C469.902 468.669 470.94 469.273 471.312 470.881L471.616 472.196L466.508 473.378ZM493.869 243.862L491.061 243.358C486.586 245.166 482.799 246.425 479.705 247.141L477.15 247.732C475.601 248.091 474.487 247.505 473.806 245.968L492.15 241.721L498.115 238.956L500.117 241.262C497.175 241.943 495.093 242.811 493.869 243.862ZM508.012 239.434L507.708 238.12C508.637 237.905 509.771 237.181 511.119 235.946L524.122 232.936L524.427 234.25C517.46 235.863 511.989 237.591 508.012 239.434ZM509.996 213.126C509.067 213.341 507.851 214.084 506.352 215.354C506.15 214.478 504.343 214.434 500.94 215.222C500.365 212.74 509.983 209.205 529.8 204.618L532.586 203.973L533.144 206.383C519.259 210.52 511.541 212.768 509.996 213.126ZM545.019 175.245C543.634 191.109 537.986 200.184 528.081 202.477L527.777 201.163L519.025 204.573L515.077 205.487C513.064 205.953 511.261 205.909 509.665 205.355L508.854 201.85C508.549 200.536 521.28 182.973 547.053 149.156L550.093 149.606C551.176 154.282 549.484 162.827 545.019 175.245ZM606.919 122.283L605.732 122.386L605.52 119.921L610.744 119.471L610.86 120.815C609.91 120.897 608.595 121.388 606.919 122.283ZM581.378 378.381C578.386 376.982 575.704 376.388 573.329 376.592L573.001 372.784C572.885 371.439 573.687 370.546 575.401 370.095C577.145 369.945 578.122 371.14 578.341 373.678C582.653 368.194 585.046 365.427 585.521 365.386L588.25 366.505C587.312 374.111 585.021 378.067 581.378 378.381ZM854.811 92.349C853.542 92.458 850.968 88.47 847.082 80.377L846.869 77.912C849.399 77.694 851.972 81.613 854.58 89.661L854.811 92.349ZM851.153 63.776L849.94 66.363L812.957 50.818C837.751 51.693 850.484 56.013 851.153 63.776ZM694.343 198.481L689.119 198.931L688.906 196.467L694.131 196.016L694.343 198.481ZM690.007 117.607L691.431 117.484L691.76 121.293C690.49 121.402 688.892 123.197 686.96 126.671L686.748 124.207C689.047 121.301 690.136 119.102 690.007 117.607ZM679.089 143.599L679.513 148.527L678.089 148.65L677.664 143.722L679.089 143.599ZM673.192 152.909L675.804 152.684C675.531 156.921 674.445 159.12 672.545 159.284L671.121 159.407C672.629 156.568 673.321 154.403 673.192 152.909ZM669.03 165.68L670.217 165.578L670.333 166.922L668.049 170.956L665.437 171.181L665.321 169.837C668.011 169.605 669.249 168.222 669.03 165.68ZM664.771 177.331L663.886 183.727L662.699 183.829L662.158 177.556L664.771 177.331ZM622.11 298.59C620.443 307.01 618.659 311.3 616.76 311.463L616.663 310.343C616.303 306.164 618.118 302.245 622.11 298.59ZM614.238 315.517L614.334 316.638C614.489 318.43 613.694 319.402 611.954 319.551L611.838 318.207C611.722 316.863 612.52 315.969 614.238 315.517ZM612.006 350.69L616.042 350.342L616.158 351.687C615.209 351.768 613.894 352.259 612.218 353.155L609.606 353.38C609.49 352.036 610.288 351.142 612.006 350.69ZM724.32 315.963C702.297 326.888 689.214 334.26 685.079 338.076C661.079 346.463 649.173 351.703 649.352 353.793C628.072 362.249 614.089 368.418 607.407 372.302C605.823 372.438 603.537 371.81 600.546 370.41C600.173 366.08 602.105 362.602 606.346 359.98C610.145 359.653 613.697 360.175 617.007 361.544C620.98 359.547 627.885 357.299 637.717 354.794L637.504 352.33L629.43 353.025C630.42 351.586 638.087 347.992 652.424 342.243L656.461 341.894L656.557 343.014C649.749 343.601 645.938 345.66 645.128 349.191C645.27 350.836 646.209 351.58 647.952 351.429C652.932 348.143 655.396 346.2 655.345 345.601C664.922 343.873 691.552 329.92 735.228 303.738L735.441 306.202C735.531 307.25 731.824 310.503 724.32 315.963ZM657.321 337.985C663.811 337.425 669.336 334.919 673.897 330.463C675.638 330.313 676.58 331.061 676.722 332.703C673.713 332.962 667.79 335.503 658.958 340.327L657.533 340.449L657.321 337.985ZM765.468 254.868L732.131 281.663C707.22 297.953 693.732 306.185 691.677 306.363C652.084 328.132 627.46 339.429 617.805 340.26L616.381 340.383C617.588 335.917 635.288 299.788 669.48 231.992C684.359 230.71 707.994 223.635 740.376 210.763L748.45 210.067C764.754 208.663 776.909 211.829 784.913 219.564L785.338 224.493C779.322 241.713 772.701 251.84 765.468 254.868ZM700.098 218.071L705.323 217.621L705.438 218.965L700.214 219.415L700.098 218.071ZM775.784 205.231L779.82 204.883C783.48 206.676 785.373 208.241 785.488 209.585L785.585 210.705C782.101 211.006 778.834 209.182 775.784 205.231ZM786.322 144.29C782.857 148.503 773.343 155.642 757.785 165.706C752.56 166.157 733.347 173.606 700.142 188.051C698.494 187.442 696.721 187.217 694.822 187.381L694.609 184.916C694.197 180.139 696.308 174.089 700.94 166.767C703.582 152.999 706.419 145.233 709.459 143.465L737.332 81.031C737.011 77.299 742.891 74.31 754.979 72.063L759.016 71.715L759.344 75.523C771.14 73.604 778.541 72.515 781.55 72.256C803.553 70.36 815.021 74.788 815.946 85.542L818.559 85.317L818.038 79.268L820.649 79.043C827.01 82.557 830.406 86.778 830.831 91.707C831.14 95.291 829.363 99.658 825.501 104.805C823.757 104.955 822.779 103.763 822.561 101.221L819.949 101.446L819.162 108.962C808.017 125.872 799.914 134.543 794.849 134.979C790.43 141.08 787.587 144.181 786.322 144.29ZM798.044 185.935L797.716 182.127L800.328 181.901L805.88 185.26C806.022 186.905 805.221 187.799 803.48 187.949C801.12 186.499 799.309 185.826 798.044 185.935ZM332.486 428.757L329.932 429.349L327.682 431.254C328.054 432.863 329.093 433.466 330.794 433.073C332.499 432.677 333.163 431.679 332.791 430.072L332.486 428.757ZM322.561 409.129L322.865 410.443C324.57 410.048 325.234 409.05 324.861 407.442L324.557 406.128C323.011 406.486 322.345 407.488 322.561 409.129ZM393.444 276.109L395.394 274.905C395.042 274.864 394.691 274.82 394.352 274.745C393.575 274.925 393.275 275.38 393.444 276.109ZM393.026 241.586L396.055 240.885L395.447 238.256L392.418 238.958L393.026 241.586ZM1099.73 342.632L1092.97 341.861L1091.75 344.448L1091.87 345.792L1132.32 342.381L1132.11 339.909L1099.73 342.632ZM1136.74 339.511L1136.95 341.984L1137.38 341.947L1137.16 339.474L1136.74 339.511ZM1306.58 317.305L1306.79 319.768L1311.23 320.614L1311.02 318.151L1306.58 317.305ZM1300.39 317.839C1269.98 324.666 1266.19 323.417 1259.79 323.968L1260 326.43L1262.79 326.19L1264.34 326.057L1263.91 325.747L1267.17 324.46C1297.25 321.114 1300.78 322.389 1300.48 318.958L1300.39 317.839ZM1117.94 273.583L1115.23 272.687C1113.03 278.596 1111.98 282.073 1112.07 283.117L1112.16 284.237C1114.22 284.06 1116.15 280.508 1117.94 273.583ZM1081.32 253.943L1081.21 252.599L1079.79 252.722L1077.29 254.291L1078.69 256.653C1080.59 256.49 1081.47 255.589 1081.32 253.943ZM1160.81 336.078L1160.6 333.605L1159.76 333.677L1159.98 336.15L1160.81 336.078ZM1325.81 298.935L1327.67 298.776C1328.81 298.677 1329.3 297.81 1329.16 296.167L1328.02 293.785C1321.1 294.38 1317.96 294.703 1312.29 297.746L1312.17 296.403L1303.92 297.24C1303.7 294.704 1303.02 293.482 1301.89 293.581L1297.55 293.954C1292.59 294.381 1290.14 294.193 1287.6 296.063C1287.53 295.168 1287.23 294.744 1286.71 294.788L1281.92 295.201L1279.11 296.796C1279.03 295.901 1278.73 295.475 1278.22 295.52L1276.47 297.023L1276.36 295.68L1269.7 295.152L1268.09 295.291L1268.3 297.754L1271.72 298.687L1274.89 298.514C1275.98 299.174 1277.2 299.442 1278.55 299.326L1281.38 297.954L1281.48 299.074C1265.8 302.982 1265.89 302.246 1255.12 304.076C1253.91 303.278 1253 302.906 1252.38 302.959C1252.29 303.04 1252.23 303.104 1252.19 303.162C1250.97 303.032 1250.29 302.298 1250.17 300.937L1255.73 300.189C1256.14 300.155 1256.47 300.577 1259.55 301.213C1264.04 299.022 1264.22 298.104 1266.6 297.899L1266.39 295.437C1250.94 298.424 1257.23 296.461 1237.87 298.129L1236.96 298.208L1236.74 295.736C1261.51 292.696 1253.29 294.386 1261.72 292.005C1261.8 292.901 1262.09 293.326 1262.61 293.282C1263.57 292.297 1264.71 291.747 1266.06 291.632L1267.76 291.486C1276.43 290.739 1279.39 292.513 1296.56 287.726L1296.65 288.845L1299.49 287.473L1302.12 287.246C1301.9 284.71 1305.77 284.326 1307.01 284.219L1306.77 281.533C1276.61 287.592 1268.63 285.924 1260.31 288.293L1260.21 287.174C1252.32 288.608 1251.96 287.928 1250 288.097C1249.38 288.151 1248.54 288.674 1247.48 289.667C1247.41 288.771 1247.06 288.35 1246.44 288.404C1246.18 288.425 1246.02 288.466 1245.89 288.517L1220.28 292.69C1220.22 291.943 1219.88 291.593 1219.27 291.645C1206.01 294.451 1209.55 294.973 1191.75 296.507C1190.9 296.58 1189.81 297.052 1188.48 297.921C1188.41 297.173 1187.96 296.834 1187.12 296.906L1176.18 297.848L1168.91 299.606C1168.84 298.859 1168.39 298.519 1167.55 298.591C1163.41 299.705 1159.86 300.385 1156.92 300.639L1156.7 300.659C1154.88 300.815 1157.65 300.202 1156.18 299.572L1153.96 300.894C1150.74 301.172 1152.45 300.65 1141.45 300.84C1122.16 303.259 1124.25 303.506 1122.18 303.685L1114.99 303.175C1115.06 303.924 1114.69 304.33 1113.9 304.399C1105.67 303.301 1101.5 302.007 1101.37 300.513C1102.45 292.746 1104.34 288.747 1107.03 288.515L1108.46 288.392L1107.24 290.979L1108.67 290.856C1111.26 289.431 1112.5 288.122 1112.4 286.924L1112.17 284.236L1109.55 284.461L1109.34 281.996C1109.18 280.057 1109.43 278.378 1110.1 276.966L1115.98 267.432L1116.19 269.896L1119.04 269.652L1118.83 267.186L1117.19 264.845C1119.27 263.012 1120.94 262.04 1122.21 261.93L1122.09 260.586L1118.29 260.914L1117.96 257.105C1125.53 241.258 1129.2 232.066 1128.98 229.525L1131.71 230.644C1133.45 230.494 1134.25 229.523 1134.09 227.731L1131.48 227.956L1131.39 226.836C1131.22 224.896 1131.54 223.137 1132.36 221.56C1136.46 217.297 1138.32 212.922 1137.93 208.442C1138.72 208.374 1139.16 208.788 1139.24 209.684C1142.73 207.729 1145.46 202.377 1147.42 193.632C1153.63 182.415 1162.47 160.062 1173.94 126.575C1195.95 67.354 1195.06 61.032 1198.16 47.072L1195.55 47.297C1195.7 49.089 1195.37 50.775 1194.55 52.348C1192.73 51.602 1191.35 51.27 1190.4 51.352L1190.3 50.232C1189.86 45.156 1192.04 39.023 1196.85 31.838L1198.04 31.736L1200.21 40.35L1202.82 40.125C1202.77 39.53 1203.43 36.088 1204.81 29.798C1204.69 28.454 1203.67 27.717 1201.74 27.58L1199.25 29.149C1199.09 27.357 1199.17 22.688 1199.48 15.137L1198.16 15.25C1196 13.079 1194.86 11.249 1194.74 9.765L1180.47 11.121C1180.39 10.074 1179.84 8.615 1178.82 6.747C1178.72 5.399 1181.95 4.111 1188.54 2.88L1191.46 3.962L1194.16 2.347C1194.23 3.246 1194.77 3.648 1195.78 3.552L1198.49 1.936C1198.56 2.835 1199.09 3.237 1200.1 3.141L1201.4 3.018L1201.17 0.095C1199.15 0.287 1193.92 0.256 1185.48 0L1182.8 1.841L1182.67 0.267C1115.57 5.732 1077.48 8.897 1068.4 9.759C1067.25 9.868 1062.52 9.79 1054.23 9.52C1054.31 10.57 1053.34 11.189 1051.32 11.381L1048.39 10.074L1038.56 12.592C1036.26 12.811 1032.4 12.651 1026.98 12.107C1025.48 13.308 1023.65 14.009 1021.48 14.214C1020.32 14.325 1035.83 13.428 1050.15 12.436C1048.64 13.629 1046.31 14.375 1043.16 14.675C1040.99 14.88 1039.08 14.534 1037.41 13.635C1035.16 14.606 1028.1 16.256 1016.23 18.59L1013.32 17.508L966.488 24.725C964.655 23.832 962.554 23.484 960.179 23.689C957.645 23.907 953.494 24.794 947.728 26.341L925.094 35.739L926.77 38.529C927.875 38.433 929.421 37.849 931.403 36.775L939.355 37.444L938.331 44.98C930.964 48.323 926.672 53.133 925.459 59.405C914.396 64.272 908.872 67.756 908.896 69.859L909.012 71.204L910.675 71.06L913.646 69.45L917.119 73.665L917.621 79.489C917.775 81.282 899.152 120.576 861.751 197.372C829.368 271.331 812.374 311.913 810.76 319.122C799.701 322.184 793.234 326.726 791.361 332.755C791.528 334.698 794.826 335.92 801.247 336.417L801.497 339.329L798.559 344.097L799.061 349.921C799.318 352.91 807.412 355.221 823.342 356.858C823.252 355.81 823.763 355.241 824.868 355.145C825.178 358.729 824.188 365.734 821.894 376.165L823.557 376.021C830.119 367.029 833.251 360.817 832.955 357.382L834.38 357.259C835.961 357.123 837.719 359.003 839.65 362.9C837.642 363.671 830.647 379.622 818.654 410.749L820.331 413.539L821.992 413.394C836.645 376.17 845.877 355.592 849.686 351.654C868.998 349.99 902.358 346.59 949.761 341.452L952.713 339.617C952.803 340.664 953.401 341.138 954.51 341.042L957.598 340.776L960.549 338.942C960.64 339.989 961.237 340.463 962.347 340.367L998.203 337.278C1007.7 336.459 1012.24 333.586 1011.81 328.657C1011.7 327.312 1017.31 325.852 1028.66 324.271C1029.77 324.176 1031.39 324.488 1033.53 325.207C1033.45 324.311 1039.11 323.372 1050.51 322.39C1050.78 316.35 1052.66 313.176 1056.15 312.876L1055.9 309.964C1052.73 310.237 1049.05 311.082 1044.87 312.494C1037.34 312.092 1032.59 311.52 1030.61 310.789C1028.63 311.862 1027.08 312.447 1025.97 312.542L1000.93 313.346L997.954 314.956C997.877 314.06 997.281 313.66 996.176 313.755L994.751 313.878L991.543 315.509C991.466 314.613 988.848 313.862 983.692 313.251L980.504 315.105L974.329 315.637L974.193 314.069C1006.42 310.541 1022.32 306.164 1021.86 300.934C1023.92 300.757 1025.04 301.714 1025.22 303.804L1034.58 301.418L1034.33 298.505L957.246 300.633C957.337 301.68 956.825 302.249 955.72 302.345L946.324 301.574C943.949 301.779 941.935 302.482 940.286 303.674L936.825 302.393C927.167 303.225 919.929 304.378 915.113 305.843C908.53 305.361 901.206 305.462 893.132 306.157L875.797 307.651L867.825 306.757C867.388 301.681 877.346 276.597 897.704 231.511C903.567 216.262 909.055 206.836 914.168 203.236C915.273 203.141 916.903 203.53 919.053 204.395L931.367 200.175L937.677 201.211C948.281 200.297 960.622 197.28 974.695 192.154C978.175 191.854 980.826 192.077 982.647 192.823L992.03 190.66L1020.05 188.246C1031.92 187.223 1044.86 184.606 1058.85 180.389L1058.6 177.477C1053.37 177.927 1050.67 177.109 1050.49 175.016C1050.16 171.134 1046.34 169.505 1039.06 170.132L1038.81 167.22L1046.51 164.977L1066.7 163.238L1066.45 160.325C1065.65 160.394 1061.5 160.3 1053.98 160.045L1053.71 156.909L1061.55 156.234C1063.61 156.057 1064.55 154.998 1064.39 153.055C1053.89 153.361 1048.58 152.838 1048.46 151.493C975.247 155.093 938.547 155.773 938.354 153.533C937.246 153.628 935.705 154.29 933.74 155.51L931.807 152.517C951.22 111.275 962.588 90.509 965.911 90.223C966.055 91.868 965.234 94.421 963.463 97.882L963.577 99.226L966.665 98.96C974.326 80.548 980.851 71.106 986.234 70.643C1009.19 68.665 982.997 67.093 1032.2 59.398C1034.16 60.271 1035.64 60.657 1036.65 60.561C1055.95 56.616 1082.86 52.55 1117.38 48.365L1117.15 45.443L1098.78 47.188L1098.55 44.265C1100.71 44.06 1102.54 43.359 1104.05 42.158L1104.17 43.731C1105.17 43.636 1106.58 42.976 1108.37 41.747C1111.54 41.446 1113.96 41.747 1115.63 42.643C1122.03 40.981 1127.18 39.961 1131.07 39.591L1142.53 38.503C1145.3 36.733 1146.62 35.096 1146.5 33.596L1146.4 32.247C1143.51 32.521 1140.16 32.313 1136.33 31.618C1136.2 29.971 1137.06 28.909 1138.91 28.429L1160.32 26.396L1170.14 23.878C1170.22 24.928 1170.7 25.41 1171.56 25.328C1172.57 25.232 1173.97 24.572 1175.76 23.344C1176.31 23.405 1176.82 23.461 1177.32 23.514C1176.02 26.184 1174.57 30.09 1172.98 35.248L1170.13 35.493C1169.96 33.554 1169.42 31.87 1168.5 30.443L1167.07 30.566C1141.09 102.919 1129.51 136.647 1105.44 192.283C1101.08 206.503 1097.3 214.424 1094.09 216.055C1094.23 217.7 1095.17 218.444 1096.92 218.294C1097.52 225.316 1095.88 232.228 1092.01 239.029C1080.88 270.985 1073.46 288.55 1069.75 291.726L1072.25 306.858C1072.39 308.503 1071.59 309.398 1069.85 309.546L1067.24 309.773C1066.88 305.592 1065.36 303.616 1062.66 303.847L1061.24 303.97C1057.86 309.225 1055.28 315.393 1053.5 322.465L1056.11 322.24C1059.59 319.987 1061.19 317.289 1060.92 314.153L1066.14 313.703L1069.11 314.801C1066.73 318.617 1065.63 321.646 1065.82 323.886L1067.22 326.248L1063.84 334.213L1063.96 335.557C1066.97 335.297 1070.24 336.219 1073.77 338.324C1076.14 338.119 1078.76 337.064 1081.63 335.164C1084.63 334.905 1095.79 334.768 1115.09 334.764L1124.8 331.445C1136.58 331.333 1138.45 331.665 1148.69 330.783L1152.91 330.42L1155.11 328.872L1155.22 330.22C1165.88 329.302 1166.59 330.07 1175.01 331.006L1175.12 332.355L1169.23 332.863L1169.44 335.335C1171.27 335.179 1172.84 334.59 1174.17 333.57C1175.71 333.436 1176.56 334.269 1176.71 336.068C1174.33 336.272 1171.62 336.88 1168.61 337.897L1165.99 336.992C1161.84 338.101 1162.78 338.4 1159.98 338.641L1155.88 337.863C1155.94 338.611 1155.63 339.016 1154.93 339.077C1155.07 340.723 1155.91 341.482 1157.45 341.349L1161.67 340.987L1183.55 339.1L1191.87 337.252C1191.93 338 1192.31 338.345 1193.02 338.285L1197.03 336.806L1204.53 336.16C1210.37 335.656 1210.26 335.213 1222.85 333.222C1222.79 332.471 1223.06 332.073 1223.67 332.02L1223.77 333.144C1244.31 329.69 1245.58 329.474 1248.84 328.339L1249.18 328.947C1254.23 327.755 1251.37 328.076 1252.74 327.054C1252.82 327.95 1253.11 328.375 1253.63 328.331L1257.19 328.024L1256.96 325.337L1249.66 325.243L1249.57 325.061C1249.29 325.123 1249.04 325.176 1248.78 325.232L1247.75 325.218L1247.77 325.435C1242.86 326.394 1242.73 325.782 1239.55 326.055L1221.22 327.022L1221.1 325.672L1231.29 324.277L1234.95 323.961L1237.02 322.424L1237.14 323.773C1251.51 322.535 1256.61 326.17 1323.2 312.011C1326.81 311.7 1326.51 308.72 1328.78 302.51C1327.54 302.616 1326.37 302.344 1325.27 301.684C1319.74 303.818 1316.83 302.815 1306.26 304.475C1305.33 304.555 1304.69 303.787 1304.35 302.16L1304.25 301.041L1314.48 301.387C1316.34 301.227 1320.1 300.856 1325.56 297.826C1326.65 298.489 1324.57 299.042 1325.81 298.935ZM833.375 306.793L828.626 307.202C828.459 305.263 830.953 298.126 836.11 285.794L839.197 285.528C839.442 288.367 837.501 295.456 833.375 306.793ZM839.062 283.96L838.946 282.616C838.805 280.973 839.828 279.909 842.02 279.417L842.135 280.761C842.304 282.704 841.277 283.769 839.062 283.96ZM901.598 332.285L901.714 333.629L893.878 334.305L893.762 332.96L901.598 332.285ZM892.201 331.515C892.344 333.161 889.859 334.876 884.752 336.671L875.118 335.921L872.031 336.187L871.779 333.276L892.201 331.515ZM955.41 40.576L950.66 40.985L950.525 39.417C950.383 37.775 951.328 36.717 953.361 36.238L955.023 36.095L958.246 37.397C958.413 39.34 957.466 40.398 955.41 40.576ZM1026.88 26.639L1028.39 26.495L1028.62 29.418L1024.3 29.829C1024.17 28.181 1025.03 27.119 1026.88 26.639ZM1008.95 32.865L1001.8 32.065L1001.69 30.72C1011.03 29.916 1014.06 28.915 1019.74 27.317C1019.82 28.367 1020.8 28.801 1022.68 28.623L1022.91 31.546L1020.09 31.813C1017.93 32.018 1016.02 31.673 1014.35 30.773C1012.73 31.968 1010.93 32.66 1008.95 32.865ZM1017.84 58.752L1017.74 57.403L1029.2 56.315L1029.3 57.664L1017.84 58.752ZM1030.13 48.752L1030.01 47.178L1035.63 46.644L1035.75 48.218L1030.13 48.752ZM1031.43 29.151L1029.92 29.295L1031.2 26.228L1043.96 25.017L1044.08 26.591C1040.76 26.906 1036.55 27.759 1031.43 29.151ZM1037.95 56.842L1037.72 53.92L1043.34 53.386C1045.22 53.208 1046.23 54.096 1046.38 56.041L1037.95 56.842ZM1071.78 10.612L1064.56 12.643L1063.26 12.766C1059.81 13.093 1055.47 12.982 1050.23 12.431C1059.64 11.779 1068.51 11.087 1071.78 10.612ZM1064.06 42.585L1064.17 43.934L1054.22 44.879L1054.12 43.53L1064.06 42.585ZM1080.28 50.305C1080.19 49.107 1078.24 48.312 1074.43 47.916L1064.49 50.742L1056.9 51.091C1055.16 49.915 1054.26 49.043 1054.22 48.476L1062.97 49.004L1082.76 45.766L1092.81 46.171L1092.93 47.744C1088.03 48.21 1083.81 49.063 1080.28 50.305ZM1182.24 23.997C1183.43 24.093 1184.21 24.129 1184.53 24.098C1187.99 20.693 1191.97 18.012 1196.47 16.049C1192.9 31.812 1187.28 43.521 1179.61 51.153L1174.06 47.795C1178.63 35.896 1181.35 27.976 1182.24 23.997ZM1164.98 53.542L1166.41 53.419C1164.48 57.048 1162.81 58.92 1161.39 59.042L1161.06 55.234C1162.01 55.152 1163.31 54.588 1164.98 53.542ZM1153.86 80.002C1156.6 69.237 1159.18 63.069 1161.6 61.506L1161.72 62.851C1160.35 72.899 1158.17 78.129 1155.17 78.535L1155.71 84.808C1153.29 88.176 1152.17 90.833 1152.33 92.773L1150.91 92.895L1150.16 84.159C1151.74 84.022 1152.97 82.639 1153.86 80.002ZM1149.6 94.362C1149.73 95.857 1148.75 99.327 1146.67 104.771L1145.24 104.894L1144.92 101.085C1146.93 96.701 1148.49 94.458 1149.6 94.362ZM1068.86 328.591L1068.76 327.471L1071.37 327.246L1071.7 331.055C1070.28 331.178 1069.33 330.355 1068.86 328.591ZM1184.17 331.575C1184.09 330.676 1183.63 330.263 1182.79 330.335L1176.26 330.897L1176.15 329.548C1176.28 329.537 1176.38 329.526 1176.47 329.514C1176.55 329.511 1176.66 329.504 1176.79 329.493L1192.14 328.17L1192.26 329.519C1187.77 329.906 1185.07 330.591 1184.17 331.575ZM1176.48 328.389C1177.12 328.701 1176.78 329.008 1176.47 329.223C1176.16 329.061 1175.82 328.812 1176.48 328.389ZM1177.26 310.435L1168.63 311.178L1168.52 309.829L1176.31 309.158L1183.15 307.435C1183.22 308.187 1183.67 308.524 1184.51 308.452C1192.58 307.003 1191.8 306.69 1195.7 306.354C1197.04 306.24 1197.78 307.006 1197.92 308.655L1177.26 310.435ZM1207.42 307.836C1202.6 307.346 1202.31 306.918 1198.9 307.212L1198.8 306.088L1206.48 305.426L1206.58 306.55C1205.85 306.613 1208.68 306.821 1207.42 307.836ZM1208.03 306.425L1207.93 305.301L1212.13 304.939L1212.23 306.063L1208.03 306.425ZM1217.34 305.622L1217.25 304.499C1217.98 304.436 1218.97 303.896 1220.24 302.883C1222.3 302.704 1223.47 304.05 1223.61 305.697L1217.34 305.622ZM1229.18 304.084L1229.07 302.736L1234.18 302.295L1234.3 303.644L1229.18 304.084ZM1236.31 303.471C1236.18 301.975 1236.77 301.092 1238.1 300.825L1239.77 303.041C1239.71 302.293 1239.98 301.891 1240.59 301.839L1241.9 304.217L1236.31 303.471ZM1334.73 291.852L1334.87 291.746L1334.85 291.609C1334.77 291.694 1334.72 291.776 1334.73 291.852ZM1336.46 290.576C1337.24 290.078 1337.62 289.594 1335.75 289.284C1334.9 290.259 1336.74 290.552 1334.78 290.721L1334.85 291.609C1335.07 291.377 1335.54 291.116 1336 290.849L1334.86 291.745L1334.87 291.84L1332.77 294.502L1337.01 293.009L1337.48 292.969L1337.26 290.506L1336.46 290.576ZM1343.84 296.254L1343.07 296.321L1343.28 298.783L1349.16 298.276C1349.03 296.786 1345.1 296.298 1343.84 296.254Z" fill="white" fill-opacity="0.7"/>
</svg>
