<svg width="291" height="410" viewBox="0 0 291 410" fill="none" xmlns="http://www.w3.org/2000/svg">
<path d="M3.23486e-06 2.19727e-06L26.409 296.205L144.916 329.104L263.751 296.16L290.187 2.19727e-06H3.23486e-06ZM229.413 134.077L228.526 143.833L219.99 239.474L219.443 245.612L145.093 266.218V266.223L144.926 266.27L70.51 245.612L65.42 188.571H82.229H101.888L104.475 217.545L144.934 228.47L144.968 228.461V228.458L185.486 217.521L189.703 170.406H145.094H144.969H63.798L60.542 134.078H144.969H145.094H192.854L196.159 96.878H145.095H144.97H57.303L54 60.549H144.97H145.095H235.973L229.413 134.077Z" transform="translate(0 80.496)" fill="white" fill-opacity="0.7"/>
<path d="M1.95313e-06 0H44V18.4H18.4V36.8H44V55.2H1.95313e-06V0Z" transform="translate(68.2939)" fill="white" fill-opacity="0.7"/>
<path d="M5.00488e-06 0H44V16H18.4V19.2H44V56H5.00488e-06V39.2H25.601V36H5.00488e-06V0Z" transform="translate(121.094)" fill="white" fill-opacity="0.7"/>
<path d="M9.76562e-07 0H44V16H18.4V19.2H44V56H9.76562e-07V39.2H25.601V36H9.76562e-07V0Z" transform="translate(173.893)" fill="white" fill-opacity="0.7"/>
</svg>
