<svg width="175" height="386" viewBox="0 0 175 386" fill="none" xmlns="http://www.w3.org/2000/svg">
<path fill-rule="evenodd" clip-rule="evenodd" d="M86.246 218.749C63.672 218.749 46.229 215.358 37.841 213.337C32.105 211.955 27.499 210.525 24 209.056L35.187 228.169L39.563 287.888C39.563 294.583 60.831 300.01 87.066 300.01C113.301 300.01 134.569 294.583 134.569 287.888L138.034 227.519L148.619 209C145.105 210.489 140.458 211.938 134.65 213.337C126.262 215.358 108.819 218.749 86.246 218.749ZM148.982 24.421C132.414 26.735 110.425 28.01 87.066 28.01C63.707 28.01 41.718 26.735 25.15 24.421C16.943 23.275 10.45 21.923 5.851 20.405C4.754 20.042 2.895 19.423 1.106 18.437L11.371 112.91C11.848 111.283 12.379 109.658 12.968 108.039C14.173 104.721 15.567 101.477 17.149 98.308C18.732 95.14 20.455 92.145 22.318 89.324C24.18 86.504 26.163 83.907 28.264 81.534C30.366 79.162 32.522 77.122 34.736 75.412C36.949 73.704 39.183 72.368 41.438 71.406C43.694 70.444 45.928 69.962 48.141 69.962C50.69 69.962 53.156 70.659 55.538 72.053C57.919 73.446 60.145 75.703 62.219 78.822C62.695 79.519 62.997 80.224 63.122 80.937C63.249 81.651 63.311 82.323 63.311 82.953C63.311 84.446 62.954 85.625 62.24 86.487C61.526 87.35 60.678 87.781 59.698 87.781C58.8 87.781 57.967 87.308 57.197 86.363C56.426 85.417 55.565 84.065 54.612 82.306C53.715 80.713 52.728 79.561 51.65 78.847C50.571 78.134 49.402 77.777 48.141 77.777C46.18 77.777 44.086 78.59 41.859 80.216C39.631 81.841 37.425 83.99 35.241 86.661C33.055 89.333 30.961 92.385 28.958 95.82C26.955 99.254 25.182 102.771 23.641 106.371C22.1 109.973 20.876 113.524 19.965 117.024C19.054 120.524 18.599 123.668 18.599 126.455C18.599 127.385 18.663 128.34 18.788 129.317C18.915 130.297 19.152 131.184 19.503 131.981C19.852 132.778 20.329 133.432 20.931 133.945C21.534 134.461 22.297 134.717 23.221 134.717C24.258 134.717 25.434 134.369 26.752 133.672C28.068 132.977 29.434 132.063 30.848 130.936C32.263 129.807 33.685 128.53 35.114 127.102C36.544 125.676 37.874 124.233 39.106 122.772C40.338 121.313 41.431 119.91 42.383 118.567C43.336 117.223 44.05 116.053 44.527 115.057L48.435 103.36C48.911 102.1 49.534 101.204 50.305 100.673C51.075 100.142 51.867 99.876 52.68 99.876C53.071 99.876 53.463 99.943 53.856 100.075C54.249 100.208 54.598 100.416 54.907 100.697C55.215 100.98 55.46 101.344 55.642 101.793C55.824 102.24 55.915 102.763 55.915 103.36C55.915 104.953 55.775 106.445 55.495 107.84C55.215 109.235 54.858 110.594 54.423 111.922C53.989 113.248 53.505 114.584 52.973 115.928C52.441 117.272 51.922 118.674 51.419 120.135C51.307 120.301 51.104 120.822 50.809 121.701C50.515 122.582 50.159 123.686 49.738 125.012C49.318 126.34 48.862 127.824 48.372 129.467C47.881 131.11 47.378 132.785 46.86 134.494C46.341 136.203 45.844 137.879 45.368 139.522C44.891 141.164 44.463 142.649 44.086 143.977C43.708 145.303 43.393 146.414 43.14 147.311C42.888 148.207 42.734 148.737 42.678 148.905C42.538 149.434 42.313 150.024 42.006 150.67C41.698 151.317 41.334 151.932 40.913 152.512C40.493 153.092 40.031 153.575 39.526 153.955C39.022 154.336 38.504 154.528 37.971 154.528C37.075 154.528 36.423 154.229 36.018 153.633C35.611 153.035 35.409 151.94 35.409 150.348V149.651C35.409 149.418 35.422 149.168 35.45 148.905C35.477 148.373 35.688 147.377 36.081 145.916C36.473 144.457 36.942 142.807 37.489 140.965C38.035 139.123 38.624 137.215 39.254 135.24C39.883 133.266 40.451 131.5 40.956 129.94C39.469 131.6 37.86 133.25 36.123 134.893C34.385 136.535 32.606 138.012 30.786 139.322C28.964 140.633 27.129 141.703 25.281 142.533C23.432 143.362 21.653 143.778 19.944 143.778C17.983 143.778 16.295 143.346 14.879 142.483C14.624 142.326 14.383 142.151 14.143 141.977L19.855 201.865C21.342 205.592 49.336 214.749 86.246 214.749C123.173 214.749 151.178 205.583 152.639 201.859L160.844 130.657C160.165 131.28 159.504 131.889 158.872 132.479C156.518 134.668 154.297 136.551 152.21 138.127C150.124 139.703 148.085 140.924 146.096 141.785C144.106 142.649 141.977 143.08 139.708 143.08C137.579 143.08 135.932 142.615 134.77 141.686C133.608 140.758 133.026 139.481 133.026 137.854V137.481C133.026 137.365 133.04 137.223 133.069 137.057C133.18 136.063 133.616 134.916 134.372 133.623C135.128 132.328 136.038 130.985 137.102 129.592C138.167 128.198 139.301 126.787 140.506 125.36C141.711 123.934 142.825 122.582 143.848 121.303C144.87 120.028 145.717 118.858 146.389 117.795C147.063 116.733 147.399 115.871 147.399 115.207C147.399 114.809 147.258 114.494 146.979 114.26C146.698 114.03 146.235 113.912 145.592 113.912C144.471 113.912 143.315 114.203 142.126 114.783C140.934 115.363 139.756 116.145 138.594 117.123C137.432 118.102 136.297 119.223 135.19 120.483C134.085 121.744 133.048 123.055 132.081 124.414C131.114 125.776 130.233 127.145 129.434 128.522C128.635 129.899 127.956 131.168 127.395 132.328C127.227 132.694 126.989 133.209 126.68 133.871C126.372 134.535 126.036 135.283 125.672 136.112C125.307 136.942 124.922 137.797 124.516 138.674C124.11 139.555 123.739 140.385 123.403 141.164C123.067 141.944 122.766 142.639 122.501 143.254C122.233 143.867 122.044 144.291 121.932 144.524C121.792 144.822 121.561 145.385 121.239 146.215C120.917 147.045 120.545 148.016 120.126 149.127C119.706 150.238 119.264 151.408 118.801 152.637C118.341 153.863 117.905 155.026 117.499 156.121C117.092 157.215 116.735 158.178 116.428 159.008C116.12 159.836 115.922 160.401 115.838 160.7C115.559 161.563 115.229 162.374 114.852 163.14C114.473 163.902 114.04 164.574 113.549 165.156C113.059 165.736 112.499 166.2 111.868 166.548C111.237 166.898 110.53 167.071 109.747 167.071C108.737 167.071 107.905 166.829 107.245 166.349C106.588 165.868 106.258 164.946 106.258 163.587C106.258 162.923 106.342 162.243 106.51 161.547C106.678 160.85 106.889 160.16 107.141 159.481C107.393 158.799 107.653 158.137 107.919 157.49C108.184 156.842 108.43 156.221 108.653 155.623C110.167 152.305 111.708 148.979 113.276 145.643C114.844 142.309 116.35 139.008 117.794 135.739C118.094 135.057 118.37 134.389 118.663 133.711C118.575 133.797 118.489 133.887 118.403 133.971C116.581 135.731 114.768 137.281 112.961 138.625C111.153 139.969 109.36 141.039 107.583 141.836C105.803 142.631 104.073 143.03 102.391 143.03C101.243 143.03 100.284 142.848 99.514 142.483C98.743 142.117 98.128 141.619 97.665 140.99C97.202 140.36 96.872 139.613 96.676 138.75C96.61 138.455 96.569 138.147 96.526 137.84C96.034 138.223 95.538 138.596 95.038 138.95C93.301 140.176 91.592 141.164 89.911 141.91C88.231 142.657 86.717 143.03 85.374 143.03C84.028 143.03 82.936 142.582 82.094 141.686C81.254 140.791 80.835 139.264 80.835 137.108C80.835 135.58 81.059 133.805 81.506 131.782C80.778 133.076 79.868 134.387 78.776 135.713C77.682 137.041 76.436 138.252 75.036 139.348C73.633 140.442 72.065 141.33 70.329 142.01C68.591 142.69 66.7 143.03 64.656 143.03C63.731 143.03 62.842 142.914 61.987 142.682C61.132 142.449 60.383 142.051 59.739 141.487C59.094 140.924 58.577 140.168 58.184 139.223C57.792 138.278 57.596 137.09 57.596 135.664C57.596 135.631 57.652 135.125 57.764 134.145C57.876 133.166 58.233 131.623 58.836 129.516C59.438 127.41 60.37 124.68 61.629 121.328C62.891 117.977 64.67 113.912 66.967 109.135C67.555 107.873 68.235 106.969 69.004 106.422C69.776 105.874 70.608 105.6 71.504 105.6C71.897 105.6 72.303 105.659 72.723 105.774C73.145 105.891 73.536 106.073 73.901 106.322C74.264 106.571 74.559 106.887 74.784 107.268C75.006 107.649 75.12 108.088 75.12 108.586C75.12 108.918 75.077 109.235 74.993 109.531C74.852 110.098 74.551 110.834 74.091 111.746C73.628 112.66 73.088 113.705 72.471 114.883C71.856 116.061 71.204 117.33 70.518 118.692C69.831 120.051 69.194 121.461 68.606 122.922C68.018 124.383 67.513 125.867 67.093 127.377C66.673 128.887 66.434 130.356 66.379 131.782C66.379 132.379 66.518 132.926 66.799 133.424C67.079 133.922 67.542 134.17 68.186 134.17C70.006 134.17 71.743 133.572 73.397 132.379C75.049 131.184 76.575 129.699 77.977 127.924C79.378 126.149 80.645 124.24 81.78 122.199C82.915 120.158 83.86 118.293 84.616 116.6C85.149 115.473 85.618 114.26 86.024 112.967C86.43 111.672 86.872 110.479 87.348 109.383C87.825 108.287 88.37 107.375 88.987 106.645C89.602 105.916 90.374 105.55 91.297 105.55C92.307 105.55 93.104 105.932 93.694 106.695C94.282 107.459 94.575 108.371 94.575 109.432C94.575 110.029 94.387 110.852 94.008 111.897C93.629 112.942 93.153 114.137 92.579 115.481C92.004 116.825 91.381 118.26 90.71 119.785C90.038 121.313 89.413 122.863 88.841 124.44C88.264 126.016 87.79 127.559 87.411 129.069C87.032 130.578 86.844 131.981 86.844 133.274C86.844 134.469 87.46 135.067 88.692 135.067C89.561 135.067 90.639 134.768 91.928 134.17C93.217 133.572 94.569 132.735 95.983 131.656C96.336 131.387 96.692 131.106 97.045 130.811C97.44 129.182 97.903 127.676 98.442 126.307C99.422 123.717 100.417 121.147 101.426 118.592C102.434 116.037 103.358 113.697 104.2 111.573L116.932 79.469C117.436 78.175 118.116 77.262 118.969 76.731C119.825 76.201 120.686 75.935 121.555 75.935C122.422 75.935 123.213 76.217 123.928 76.781C124.643 77.346 125.001 78.258 125.001 79.519C125.001 80.116 124.881 80.747 124.643 81.41C124.405 82.074 124.104 82.787 123.739 83.55C123.04 85.111 122.206 87.018 121.239 89.274C120.272 91.531 119.235 93.987 118.129 96.641C117.022 99.296 115.887 102.058 114.725 104.928C113.563 107.799 112.428 110.594 111.321 113.315C110.216 116.037 109.178 118.615 108.211 121.055C107.245 123.494 106.413 125.61 105.711 127.401C105.403 128.164 105.102 129.053 104.809 130.065C104.514 131.076 104.368 131.981 104.368 132.778C104.368 133.274 104.452 133.672 104.62 133.971C104.788 134.27 105.11 134.42 105.586 134.42C106.174 134.42 106.909 134.213 107.792 133.797C108.674 133.383 109.626 132.834 110.649 132.154C111.673 131.475 112.737 130.695 113.842 129.815C114.95 128.936 116.049 128.024 117.141 127.078C118.235 126.131 119.278 125.186 120.272 124.24C121.266 123.295 122.157 122.424 122.942 121.627C123.126 121.436 123.346 121.301 123.588 121.2C124.061 119.787 124.493 118.403 124.874 117.049C125.098 116.451 125.407 115.606 125.799 114.51C126.19 113.414 126.639 112.336 127.143 111.274C127.647 110.213 128.216 109.291 128.844 108.512C129.475 107.733 130.155 107.342 130.883 107.342C132.004 107.342 132.817 107.6 133.321 108.113C133.825 108.629 134.077 109.383 134.077 110.379C134.077 110.578 134.049 110.893 133.993 111.324C133.936 111.756 133.868 112.213 133.784 112.694C133.7 113.174 133.608 113.631 133.51 114.063C133.411 114.494 133.321 114.809 133.237 115.008C134.272 113.879 135.393 112.76 136.598 111.649C137.803 110.537 139.049 109.531 140.338 108.637C141.628 107.74 142.944 107.012 144.29 106.445C145.633 105.883 146.979 105.6 148.323 105.6C149.247 105.6 150.165 105.733 151.075 105.999C151.985 106.264 152.799 106.654 153.512 107.168C154.227 107.684 154.809 108.33 155.256 109.11C155.704 109.889 155.928 110.793 155.928 111.822C155.928 113.184 155.586 114.635 154.899 116.178C154.213 117.721 153.352 119.272 152.315 120.83C151.278 122.391 150.157 123.908 148.954 125.385C147.749 126.862 146.622 128.205 145.571 129.416C144.52 130.629 143.637 131.656 142.922 132.502C142.21 133.35 141.836 133.922 141.809 134.221C141.809 134.619 141.936 134.942 142.188 135.192C142.44 135.44 142.86 135.565 143.448 135.565C143.924 135.565 144.626 135.299 145.549 134.768C146.473 134.237 147.77 133.317 149.436 132.006C151.102 130.695 153.219 128.936 155.782 126.729C157.54 125.217 159.598 123.414 161.917 121.363L173.031 18.434C171.241 19.422 169.379 20.042 168.281 20.405C163.683 21.923 157.19 23.275 148.982 24.421ZM87 -2.13623e-06C38.9515 -2.13623e-06 6.91414e-09 5.37238 6.91414e-09 12C6.91414e-09 18.6276 38.9515 24 87 24C135.049 24 174 18.6276 174 12C174 5.37238 135.049 -2.13623e-06 87 -2.13623e-06ZM121.738 15.507C121.738 17.062 117.109 18.323 111.398 18.323C105.688 18.323 101.059 17.062 101.059 15.507C101.059 13.951 105.688 12.69 111.398 12.69C117.109 12.69 121.738 13.951 121.738 15.507Z" transform="translate(0.474121 85.99)" fill="white" fill-opacity="0.7"/>
<path fill-rule="evenodd" clip-rule="evenodd" d="M0.0777548 99.5503C0.0264888 99.632 3.60107e-06 99.7155 3.60107e-06 99.8003C3.60107e-06 100.807 3.727 101.622 8.323 101.622C12.92 101.622 16.646 100.807 16.646 99.8003L27.517 55.7223L70.75 10.0775C70.7642 10.0636 70.7778 10.0492 70.791 10.0343C71.706 8.99927 69.849 5.79627 66.768 3.04927C63.687 0.302273 60.36 -0.627727 59.326 0.418273C59.3183 0.426096 59.3107 0.434029 59.3034 0.442072L13.176 48.9803L0.0777548 99.5503Z" transform="translate(103.549 0.70166)" fill="white" fill-opacity="0.7"/>
</svg>
