<svg width="354" height="499" viewBox="0 0 354 499" fill="none" xmlns="http://www.w3.org/2000/svg">
<path d="M-1.15899e-06 0H22.4419V22.2208H43.1268V0H65.5687V67.2481H43.1268V44.8323H22.6371V67.2481H-1.15899e-06V0ZM95.2329 22.4159H75.4251V0H137.58V22.4159H117.675V67.2481H95.2329V22.4159ZM147.435 0H170.951L185.392 23.6831L199.831 0H223.347V67.2481H200.906V33.9163L185.196 58.0866L169.486 33.9163V67.2481H147.435V0ZM234.47 0H256.912V45.0267H288.721V67.2481H234.47" transform="translate(32.9805)" fill="white" fill-opacity="0.7"/>
<path d="M-2.89748e-06 -4.34117e-07L32.1998 360.995L176.707 400.954L321.8 360.801L354 -4.34117e-07H-2.89748e-06ZM283.746 118.025H177H176.805H114.357L118.455 163.345H176.804H176.999H279.745L267.548 299.206L176.998 324.296V324.545L86.0595 299.206L79.8157 229.715H124.309L127.432 265.093L176.902 278.322L226.275 265.094L231.446 207.592H176.804V207.494H77.8646L65.7645 73.7775H176.804H176.999H287.843L283.746 118.025Z" transform="translate(0 98.0455)" fill="white" fill-opacity="0.7"/>
</svg>
