<svg width="395" height="395" viewBox="0 0 395 395" fill="none" xmlns="http://www.w3.org/2000/svg">
<path d="M1.26001e-05 0V395H395V0H1.26001e-05ZM215.112 308.081C215.112 346.515 192.578 364.008 159.686 364.008C129.967 364.008 112.757 348.628 104.004 330.104L134.217 311.811C140.048 322.157 145.353 330.903 158.105 330.903C170.3 330.903 177.994 326.132 177.994 307.579V181.368H215.111L215.112 308.081ZM302.814 364.077C268.342 364.077 246.072 347.649 235.175 326.119L265.339 308.595C273.296 321.586 283.647 331.135 301.955 331.135C317.335 331.135 327.161 323.447 327.161 312.827C327.161 300.1 317.066 295.592 300.137 288.187L290.859 284.206C264.073 272.795 246.279 258.499 246.279 228.279C246.279 200.441 267.49 179.248 300.639 179.248C324.238 179.248 341.205 187.462 353.431 208.968L324.527 227.527C318.164 216.116 311.298 211.62 300.64 211.62C289.768 211.62 282.877 218.517 282.877 227.527C282.877 238.662 289.774 243.17 305.7 250.067L314.979 254.042C346.517 267.566 364.323 281.353 364.323 312.351C364.321 345.769 338.069 364.077 302.814 364.077Z" fill="white" fill-opacity="0.7"/>
</svg>
