<svg width="518" height="518" viewBox="0 0 518 518" fill="none" xmlns="http://www.w3.org/2000/svg">
<path fill-rule="evenodd" clip-rule="evenodd" d="M4.1931 0.00665503C4.89748 0.538473 6.1202 0.884136 4.89749 1.93448C4.02033 3.15766 2.97039 4.20801 2.27265 5.61068C1.5749 6.84051 1.04994 7.18618 -1.01397e-07 6.31533C1.39548 4.03516 2.79097 1.92785 4.18646 1.09551e-05L4.1931 0.00665503ZM355.689 183.597C355.689 184.115 355.862 184.461 355.862 184.993C356.214 184.295 356.214 183.943 356.393 183.597H355.689ZM355.689 185.166V184.993V185.166ZM320.018 253.484L289.583 84.6189C289.065 84.4527 288.367 84.1071 287.138 83.7547C287.49 84.4527 287.669 84.9779 287.842 85.5031C288.706 85.3302 289.065 85.3302 289.41 85.1574C289.41 84.9846 289.41 84.8117 289.59 84.6256L320.025 253.504L320.018 253.484ZM288.54 46.6072C288.367 47.1257 288.367 47.6576 288.367 48.1827C288.367 47.6509 288.367 47.1191 288.553 46.6006L288.54 46.6072ZM288.712 50.1039C288.54 50.1039 288.54 50.1039 288.367 49.9178V50.0906C288.553 50.2635 288.553 50.2635 288.726 50.0906L288.712 50.1039ZM288.367 51.4999V50.2701C287.855 50.4429 287.33 50.443 286.626 50.6224C287.503 50.9548 288.38 51.141 288.38 51.4867L288.367 51.4999Z" transform="translate(92.3301 216.367)" fill="white" fill-opacity="0.7"/>
<path fill-rule="evenodd" clip-rule="evenodd" d="M516.916 225.308C516.571 218.474 516.398 211.64 515.693 204.813C514.471 195.526 513.248 186.066 511.148 176.959C509.573 169.427 506.962 162.241 504.33 155.061C501.008 146.652 497.685 138.07 493.485 130.013C486.667 117.05 477.75 105.483 469.529 93.3969C464.094 85.6856 457.103 79.3835 451.853 71.4993C448.883 66.9456 444.51 63.0966 440.138 59.5999C433.141 53.9826 425.798 48.8971 418.455 43.9977C412.859 40.142 407.264 36.4658 401.31 33.1353C396.592 30.4962 391.522 28.3955 386.624 26.1153C381.029 23.4894 375.607 20.3318 369.314 19.1086C367.732 18.7762 366.337 18.2444 364.762 17.7126C360.741 16.3166 356.894 14.741 352.867 13.5112C346.753 11.5834 340.806 9.30985 334.506 7.72769C328.406 6.15217 322.106 5.10848 315.807 4.22433C308.816 3.19394 301.653 2.82831 294.649 2.1436C290.103 1.61178 285.558 1.09325 281.186 0.920413C274.54 0.574731 267.722 0.574732 261.077 0.401891C257.755 0.222402 254.259 -0.129928 250.937 0.0495611C245.866 0.222402 240.796 0.747572 235.719 1.44558C230.828 1.9774 225.931 2.84161 221.213 3.55291C215.452 4.25093 209.684 4.60325 203.909 5.30791C198.486 6.01257 192.891 7.06291 187.475 7.94041C185.548 8.29274 183.621 8.99075 181.694 9.33644C177.508 10.2139 173.135 10.5663 168.935 11.9689C161.426 14.2558 153.897 16.8883 146.554 19.6803C139.73 22.4856 133.085 25.4638 126.619 28.9672C119.974 32.6367 113.674 37.0109 107.381 41.2256C101.427 45.2541 95.4864 49.4555 89.7051 54.0092C84.1231 58.3967 78.8734 63.296 73.7965 68.2021C71.0056 70.9941 68.7263 74.3313 66.1014 77.4823C61.7356 82.5678 57.363 87.4672 53.1633 92.7255C49.6812 97.113 46.5181 101.66 43.1955 106.22C37.2614 114.264 32.1911 122.853 27.4731 131.442C25.546 134.945 23.7983 138.449 22.0506 141.945C19.4258 147.197 16.6282 152.283 14.1827 157.714C12.4284 161.397 11.0329 165.425 9.983 169.454C7.54423 178.042 5.09216 186.804 2.81951 195.38C0.71964 203.091 0.194672 211.148 0.0285433 219.032C-0.150876 226.039 0.546866 232.873 1.24461 239.88C1.42403 241.635 0.380737 243.735 2.46732 245.131C1.76958 247.059 2.29454 248.123 3.33119 248.455C2.12177 250.383 3.8628 251.62 3.17171 253.375C2.99229 253.72 3.70332 254.418 4.03558 254.943C4.03558 255.475 3.86945 256.173 4.03558 256.698C4.22164 258.274 4.91938 259.849 4.91938 261.604C4.91938 262.828 5.96268 264.23 6.31487 265.46C6.48764 265.979 6.31487 266.856 5.96268 267.208C4.91274 268.432 5.08552 269.482 6.66042 270.187C7.54423 272.46 7.19203 273.51 7.01926 274.574C7.36481 276.143 6.83984 276.668 7.01926 277.02C8.41474 279.826 8.94636 282.977 9.11248 286.128C9.11248 286.833 9.46468 287.537 9.81687 288.408C9.98965 288.408 9.81687 291.732 9.81687 291.732C10.6807 291.213 11.3918 291.041 12.2623 290.688C12.7939 292.962 13.3122 295.076 14.01 297.004C14.8871 298.4 14.8871 299.091 14.5416 299.264C15.2393 302.415 15.5849 305.393 16.8009 308.371C16.8009 305.047 16.4687 301.723 15.9371 298.566C18.3825 299.443 20.4824 300.314 21.8845 300.314C22.0639 299.782 22.2367 299.091 22.4161 298.739C21.3662 297.695 20.489 296.119 19.4391 295.069C19.7913 296.465 19.4391 296.997 19.4391 297.529C18.7413 297.17 17.8642 296.817 16.9937 296.465C17.6914 295.601 18.3891 294.717 19.4391 293.673C19.4391 292.091 18.5752 290.682 16.1165 290.861C17.1664 290.515 18.2164 289.997 19.4391 289.638C21.3662 288.594 19.2663 286.666 19.2663 284.213C19.4391 281.242 17.6914 278.264 17.1664 275.106C16.2893 270.207 16.4687 262.848 15.9437 257.941C14.8938 257.064 14.0166 259.338 13.8438 259.517C14.3755 263.718 14.8938 267.92 15.2393 272.128C14.196 268.624 13.4917 264.769 12.6211 260.561C12.4417 261.791 12.2689 262.316 12.2689 263.02C11.4051 263.885 12.0962 264.948 12.6211 266.171C11.3984 265.64 9.99629 265.826 9.99629 265.826V270.732C8.25526 268.977 7.73694 267.581 6.85313 266.344C6.50758 264.948 6.32152 263.552 5.98926 262.156C6.32152 261.272 5.98926 260.747 5.98926 260.228C5.80319 258.992 5.63042 257.596 5.45764 256.014C5.63042 255.841 5.28487 253.222 5.28487 253.222C6.68035 253.388 7.56416 253.554 8.43468 253.554C6.687 251.294 7.90306 249.884 8.6141 248.482C8.96629 247.777 10.189 247.618 10.5412 246.9C11.9367 244.274 14.216 242.18 14.216 238.843C14.216 237.267 14.7476 235.519 14.9137 233.937C15.2659 230.958 15.6115 227.98 15.7776 225.002C16.1364 221.146 15.7776 217.291 16.6614 213.614C18.0702 207.499 19.8178 201.363 21.7383 195.227C23.1338 190.839 24.7153 186.651 26.4564 182.264C29.0812 175.43 31.5333 168.596 34.8559 162.121C39.5739 152.655 44.9964 143.547 50.2461 134.267C53.5686 128.484 57.064 123.052 60.7454 117.448C64.2341 112.017 67.7229 106.413 71.7565 101.328C77.3583 94.1481 83.4785 87.4871 90.2965 81.5308C97.2938 75.2287 103.939 68.7472 111.455 62.9636C121.236 55.4118 131.563 48.7641 142.567 42.9806C151.492 38.2607 160.755 34.5646 170.025 31.0612C175.973 28.7877 182.438 27.7373 188.565 25.8095C195.556 23.5293 202.553 22.4856 209.896 22.3062C214.614 22.1267 219.166 21.6015 223.884 21.0763C228.084 20.7439 232.277 20.385 236.829 19.8598C236.297 20.5578 236.125 20.9101 235.952 21.2558C234.038 24.0612 231.938 26.8665 230.011 29.6652C228.436 31.9454 226.689 34.3984 225.114 36.6719C222.309 40.3614 219.332 44.0376 216.714 47.8933C212.694 53.6768 209.019 59.6331 204.819 65.41C200.633 71.014 196.081 76.2724 191.708 81.697C185.94 89.2355 180.518 96.9402 174.75 104.472C169.5 111.652 163.918 118.499 158.841 125.678C154.296 131.974 150.269 138.641 145.897 145.11C139.431 154.749 132.958 164.202 126.493 173.841C121.416 181.193 116.346 188.38 111.102 195.739C110.75 196.271 110.225 196.43 109.707 196.782C108.312 199.056 108.312 200.286 107.78 201.336C106.384 203.962 104.989 206.588 103.407 209.047C102.53 210.443 101.308 211.667 100.258 213.069C100.085 210.969 103.049 209.918 101.653 207.286C100.789 208.695 99.9054 209.918 99.0349 211.321L96.935 215.509C97.6327 216.041 98.8621 216.393 97.6327 217.437C97.1011 218.321 96.5828 219.365 96.0578 220.249C96.935 219.717 97.4533 219.199 97.9849 218.494C97.9849 220.422 96.935 221.991 96.0578 223.566C95.3601 224.962 93.6124 226.026 92.3897 227.069C92.5625 227.249 93.7852 227.774 93.9646 227.947C95.5395 227.415 96.0645 226.551 96.2439 227.069C96.7755 226.371 97.2938 225.846 97.4666 225.321C98.1577 223.566 99.2076 222.17 100.955 221.465C101.66 221.113 102.178 220.588 102.703 220.069C107.953 214.632 113.375 209.38 118.093 203.596C125.443 194.655 132.088 185.382 139.092 176.274C142.056 172.418 145.558 168.563 148.701 164.88C149.219 168.908 148.874 172.758 148.701 176.447C148.169 182.922 147.824 189.41 147.305 196.058C147.126 198.684 147.305 201.31 147.126 203.942C147.126 204.64 146.594 205.165 146.594 205.87C146.594 207.618 147.126 209.546 147.126 211.301C146.594 217.783 145.89 224.085 145.365 230.566C145.186 231.962 145.883 233.372 146.229 234.601C145.365 244.054 147.292 254.046 145.711 264.031C146.933 262.103 147.285 260.88 147.285 259.657C147.452 258.606 147.285 257.556 147.285 256.333V254.578C147.452 251.42 148.149 248.096 147.804 244.939C147.452 241.435 147.452 238.111 148.156 234.781C148.508 233.385 147.983 231.63 148.86 229.875V232.501C148.688 242.472 149.04 252.464 147.644 262.449C147.465 263.326 148.176 264.908 146.249 264.729C144.667 267.88 146.594 270.16 144.853 271.908C144.494 272.261 145.186 273.836 145.365 274.887C144.661 276.994 144.661 276.994 145.711 277.167C145.883 281.022 146.242 284.519 146.408 288.202C149.199 281.554 147.804 274.707 149.04 267.873C149.213 270.679 149.392 273.484 149.213 276.449C149.213 281.016 149.04 285.39 148.867 289.944C148.867 290.821 148.688 291.699 148.515 292.576C147.983 295.036 147.817 297.482 146.94 299.756C146.242 301.511 146.594 304.143 146.594 306.237V312.905C147.292 315.883 146.415 317.459 146.94 319.207C146.408 320.969 146.242 321.494 146.408 322.019L146.94 324.645C150.442 324.292 148.867 326.925 150.262 328.321C149.213 329.73 149.565 330.249 149.565 330.96C149.565 332.536 149.399 333.938 149.219 335.514C149.219 339.542 149.046 343.571 149.046 347.427C149.046 347.958 149.219 348.47 149.219 348.995C149.219 349.354 149.046 353.915 149.046 353.915C149.399 354.433 149.046 354.958 148.515 355.484C148.349 355.484 147.824 333.234 147.824 333.234H145.199C144.853 343.737 145.73 353.197 143.803 363.016C141.703 363.182 141.012 363.534 138.726 363.534C133.304 363.534 127.882 363.534 122.459 363.707C115.987 363.707 109.7 363.88 103.221 363.88C100.085 363.88 96.7622 364.239 93.6124 364.239C89.4127 364.239 85.0402 363.707 80.8537 363.707C74.3747 363.707 68.0817 364.239 61.6093 364.411C56.8912 364.584 52.1732 364.584 47.4551 364.764C44.2986 364.93 41.1422 365.096 38.0057 365.455C36.6102 365.628 35.3808 366.153 33.6331 366.678C33.1015 366.678 31.8855 366.506 30.8422 366.678C29.0812 367.031 27.5196 368.074 25.7586 368.433C23.1338 368.965 22.436 369.657 22.7816 372.289V374.037C22.6088 374.383 26.6358 373.506 26.6358 373.506C26.2769 373.506 26.1042 374.556 25.5726 375.433C26.9813 374.902 27.8519 374.556 28.729 374.21C31.3539 375.44 33.6265 374.742 35.7197 375.274C42.5377 377.016 49.5284 377.734 56.5191 378.418C61.071 378.771 65.4436 378.95 69.9889 379.116C76.4546 379.469 82.927 379.821 89.3927 379.821C94.8152 379.821 100.065 379.289 105.474 379.289C112.983 379.289 120.519 379.635 128.034 379.821C129.609 379.821 131.357 379.635 133.105 379.635H145.863C157.24 379.289 168.603 379.103 179.973 378.771C186.452 378.584 193.097 378.239 199.563 378.059L219.498 377.527C227.194 377.355 234.889 377.355 242.411 377.195C248.179 377.195 253.774 376.996 259.556 376.829C266.015 376.657 272.66 376.131 279.132 375.786C282.634 375.606 286.136 375.254 289.632 374.908C293.831 374.563 298.204 374.044 302.39 373.865C308.69 373.506 315.162 373.333 321.462 372.98C329.33 372.462 337.198 371.764 345.238 371.584C352.588 371.239 360.104 371.412 367.453 371.239C373.925 371.059 380.398 370.707 387.043 370.534L398.074 370.002C398.074 370.002 405.41 369.829 409.085 369.47C415.378 369.125 421.671 368.427 427.971 368.254C431.984 368.074 436.011 368.254 440.032 368.074C446.497 367.902 453.142 367.543 459.615 367.543C462.054 367.543 464.678 367.902 467.828 368.074C466.433 369.304 465.556 370.002 464.506 370.88C465.203 371.053 465.901 371.412 466.606 371.757C465.556 372.455 464.678 372.621 463.815 372.621C463.456 373.506 463.104 373.858 462.751 375.613H465.901C464.678 375.613 463.629 377.188 462.406 378.239C461.01 377.88 459.781 378.239 459.083 380.167C460.306 380.858 460.133 381.383 459.96 382.094C457.861 382.786 456.286 383.491 457.169 385.764C456.458 386.11 455.588 386.462 454.711 386.987C453.847 388.383 452.265 388.736 452.611 390.663C453.315 390.83 454.006 391.195 454.538 391.355C453.661 391.707 452.79 392.232 451.913 392.578C448.77 394.506 450.172 395.383 450.87 396.261C450.338 396.613 449.82 396.959 449.295 397.138C449.64 398.714 450.159 399.066 450.338 399.066C449.64 399.585 448.763 400.289 447.713 401.167C447.182 402.742 446.484 403.44 445.786 404.491C445.089 405.541 444.736 406.95 443.859 407.994C440.191 412.029 437.566 416.769 432.848 419.913C431.094 421.143 429.526 422.719 427.951 424.301C424.801 427.272 422.003 430.603 418.681 433.408C414.315 437.084 409.776 440.408 405.045 443.739C399.283 447.767 393.515 451.796 387.741 455.652C384.591 457.746 381.096 459.321 377.773 461.249C374.45 463.177 371.301 464.932 367.978 466.853C365.878 468.249 363.951 470.177 361.678 471.24C355.91 473.7 349.784 475.794 343.843 478.074C338.062 480.534 333.875 482.628 329.503 484.204C325.482 485.6 321.282 486.663 317.089 487.527C315.694 487.886 314.112 487.527 312.537 487.707C309.56 488.239 306.59 488.943 303.613 489.289C295.918 490.339 288.223 491.044 280.534 492.094C275.982 492.626 271.61 493.49 267.065 494.022C263.921 494.195 260.599 493.849 257.449 493.849C255.176 493.849 252.731 494.381 250.452 494.029C246.784 493.497 243.109 492.633 239.434 491.928C238.57 491.755 237.334 491.396 236.643 491.755C235.247 492.46 234.011 491.41 232.609 491.755C231.745 491.935 230.868 491.224 229.991 491.224C229.287 491.057 228.41 491.41 227.532 491.224C225.605 490.705 223.864 490.007 221.751 490.18C219.671 490.353 217.565 489.302 215.305 488.784C212.149 488.079 209.192 487.388 206.029 486.676C204.813 486.324 203.769 485.799 202.54 485.101C197.988 485.101 195.011 484.928 192.213 483.871C189.768 483.007 187.495 481.777 184.87 482.129C184.179 482.302 183.654 481.957 182.943 481.957C182.412 481.252 181.9 479.849 181.382 479.849C177.886 480.029 175.787 477.057 172.809 476.173C171.241 475.641 170.019 473.893 168.444 473.368C164.589 471.792 161.453 468.468 157.08 467.943C155.685 467.764 154.289 467.066 152.708 466.547C153.239 467.239 153.572 467.764 154.103 468.289C149.033 465.829 144.315 463.037 139.59 460.405C138.899 460.232 138.374 459.54 137.849 459.182L133.131 456.03C130.506 456.562 129.456 455.499 128.745 455.153C124.027 451.829 118.612 449.722 114.06 446.046C112.132 444.463 109.873 443.413 108.478 441.485C106.019 438.507 103.049 436.406 99.726 434.658C97.1078 433.262 94.6624 431.68 92.2169 430.104C90.9876 429.227 89.7582 428.177 89.7582 426.249C89.7582 425.019 89.2399 423.789 87.665 424.494C86.9673 423.443 86.2695 422.22 85.3923 421.868C83.2925 421.004 81.897 419.408 80.3221 418.012C78.7472 416.616 77.5311 414.688 75.604 413.99C72.102 412.594 70.0021 409.616 67.9089 407.163C63.0048 401.38 58.6323 395.064 54.087 388.948C53.7348 388.416 53.037 388.064 52.5121 387.539C53.2098 389.467 54.087 391.042 54.9575 392.791C53.2165 392.093 51.9937 390.863 50.9438 389.64C50.7644 389.819 63.0048 409.962 63.0048 409.962C64.068 411.537 64.9319 413.119 65.9818 414.695C63.357 414.868 61.6093 413.465 60.7321 411.89C59.1639 409.098 57.4096 407.343 53.9142 407.702C53.5686 406.465 53.2164 405.062 53.0503 403.846C52.3393 403.846 51.821 403.846 50.5916 403.666C53.0503 407.522 55.1436 410.846 57.4162 414.702C56.5324 414.17 56.0207 413.824 55.6552 413.651C58.7984 416.975 61.071 421.183 65.0914 423.29C65.9685 427.312 70.5138 429.24 71.5638 433.096C70.6999 432.916 69.9822 432.743 69.105 432.564C67.7096 430.816 66.1347 429.067 64.5664 427.139C64.9119 428.363 65.4303 429.413 66.1347 430.29C68.2345 432.916 70.1616 435.542 72.607 437.822C73.4842 438.713 74.7069 439.065 74.7069 440.641C76.1024 441.339 76.634 441.505 77.1523 441.505C77.5112 442.569 76.9862 444.144 79.0794 443.792C80.4749 446.418 81.8704 446.418 83.7975 445.547C86.0768 447.827 87.3062 448.007 88.8744 446.611C88.8744 447.475 89.0472 448.352 89.0472 449.057C89.7449 448.705 89.5788 448.18 89.5788 447.302C90.4427 448 90.9743 448.352 91.3198 448.698C93.0675 451.158 94.6424 453.431 97.0878 455.359C100.41 458.164 103.387 461.143 106.524 463.768C112.651 468.854 119.482 473.062 126.293 476.911C134.693 481.644 142.74 486.723 151.306 491.27C161.619 496.708 172.637 500.391 184 503.017C188.2 503.894 192.22 504.765 196.426 505.809C200.081 506.872 203.763 508.448 207.437 509.319C213.033 510.548 218.801 511.599 224.396 512.643C225.612 512.822 226.855 513.001 228.25 513.174C229.812 513.527 231.732 512.822 232.084 513.354C232.962 514.75 233.659 514.045 234.709 513.872C235.932 513.52 237.334 513.52 238.73 513.52C243.627 513.693 248.345 514.743 253.243 514.398C254.306 514.398 255.874 513.513 256.751 515.262C258.319 514.564 259.197 514.564 259.894 514.398C260.08 515.966 259.894 515.966 259.562 516.139C259.203 516.312 258.678 516.492 257.981 517.017C264.274 518.24 270.221 518.413 275.457 517.017C284.561 517.715 292.429 516.664 299.951 514.039C300.649 514.916 301.174 516.139 302.224 514.391C302.57 513.859 303.447 513.68 304.151 513.507C305.719 513.154 307.647 512.456 309.042 512.975C310.624 513.507 311.149 512.111 312.365 512.111C314.471 512.111 316.392 511.931 318.319 511.579C319.369 511.406 320.419 510.881 321.641 510.529C320.246 509.817 318.85 509.644 317.787 509.644C319.894 508.594 321.814 507.717 323.741 506.852C323.389 507.371 323.037 508.069 322.346 508.069H324.784C324.253 508.069 323.555 509.644 322.685 510.695C328.971 509.119 334.739 507.717 340.341 506.307C338.414 502.638 342.434 503.868 343.836 501.76C342.088 502.292 340.341 502.811 338.586 503.156C344.534 500.185 350.654 497.559 356.595 494.933C355.731 495.983 354.668 496.509 353.106 497.393C354.156 497.559 354.854 497.559 355.379 497.725C358.17 498.609 357.479 495.983 358.349 494.401C361.672 494.401 363.067 493.883 364.642 493.351C366.39 492.819 368.138 492.3 369.892 491.602C372.683 490.379 375.308 488.81 378.105 487.414C378.637 487.228 379.501 487.414 380.205 487.414C382.132 486.178 382.823 485.128 383.348 485.3C385.807 485.653 387.535 484.769 388.239 482.508C389.462 481.624 390.339 480.926 391.21 480.394C395.05 478.294 398.719 476.193 402.573 474.092C403.968 474.092 404.673 474.092 405.018 473.913C407.304 472.849 409.404 471.639 411.497 470.409C410.966 470.237 409.75 469.545 409.75 469.545C411.491 469.186 412.009 469.013 413.072 468.661C417.259 463.742 423.04 460.418 427.406 456.562C429.333 456.389 429.333 455.864 429.333 455.519C430.024 454.641 430.728 453.591 431.592 452.886C435.446 449.383 439.633 446.405 443.135 442.728C448.205 437.636 453.103 432.378 457.648 426.947C461.834 422.041 466.047 417.141 469.543 411.71C474.44 404.178 478.633 396.467 483.006 388.576C486.156 382.979 488.953 377.375 492.11 371.771C492.442 371.239 493.153 370.541 493.678 370.541C498.396 370.009 503.127 369.677 507.673 369.145C508.723 368.972 509.945 368.281 510.995 367.749C510.464 366.871 510.118 365.821 509.6 364.943C508.895 363.88 507.845 363.016 507.141 361.952C506.45 361.088 505.925 360.024 505.4 358.98C504.868 358.116 504.35 357.411 503.825 356.521C502.762 354.593 501.719 352.665 500.835 350.578C500.662 350.046 500.303 349.182 500.489 348.65C503.639 341.823 504.862 334.464 507.832 327.63C510.803 320.623 511.686 312.739 513.082 305.207C514.305 298.027 515.009 290.848 515.873 283.668C516.404 278.589 517.102 273.683 517.268 268.604C518.332 260.547 517.973 253.009 517.8 245.47C517.627 238.823 517.268 231.989 516.936 225.328L516.916 225.308ZM78.1691 440.947C76.9463 439.551 75.8964 437.969 74.6737 436.573L75.2053 436.041C77.1125 438.148 79.0396 440.249 80.96 442.529C79.9101 441.997 78.6874 441.651 78.1691 440.947ZM80.96 442.529C81.4916 442.349 82.0233 442.349 82.5416 442.177C83.0732 443.054 83.4187 444.104 83.9371 445.155C81.4916 444.975 80.2689 443.925 80.9667 442.529H80.96ZM262.838 514.876V514.344C266.161 513.999 269.304 513.646 272.627 513.301V513.812C269.304 514.344 266.161 514.677 262.838 514.863V514.876ZM306.896 510.322C304.457 510.854 301.832 511.207 299.387 511.559C298.509 511.732 297.46 512.609 297.114 511.027C296.762 511.207 296.41 511.207 296.064 511.386C296.928 514.005 299.034 511.905 300.782 512.955C296.928 513.487 293.273 513.832 289.592 514.351V514.005C290.655 513.832 291.871 513.653 292.914 513.474V512.955C291.173 512.775 289.426 512.603 287.665 512.603C287.153 512.603 286.449 513.307 285.924 513.48C285.226 513.653 284.528 513.833 283.651 513.833C280.68 514.005 277.71 514.005 274.906 514.178C274.726 514.178 274.374 514.005 274.201 514.005V513.474C285.917 511.905 297.46 510.329 309.175 508.754C309.354 509.099 309.354 509.452 309.527 509.797C308.477 509.797 307.779 510.163 306.902 510.329L306.896 510.322ZM309.527 508.581C313.554 508.049 317.236 507.703 321.076 507.185C313.036 509.458 310.411 509.804 309.534 508.581H309.527ZM157.213 154.888C162.795 147.177 168.577 139.466 174.172 131.588C175.919 129.295 177.315 126.842 179.063 124.568C179.594 123.863 180.292 123.518 181.162 122.813L180.99 122.481C181.687 121.597 182.385 120.885 182.737 120.194C183.628 118.798 184.153 117.216 184.851 115.64C185.023 115.308 185.548 114.956 185.548 114.956C188.007 116.179 188.007 113.56 188.871 112.675C190.446 110.92 192.021 108.999 193.416 107.244C194.466 105.848 195.516 104.618 196.393 103.043C196.566 102.511 196.041 101.647 195.862 100.935H195.343C195.875 100.59 196.393 100.071 196.918 99.7123C197.091 99.7123 197.091 99.7123 197.264 99.5395C198.314 97.9573 199.364 96.3818 200.414 94.9791C202.507 92.1871 204.779 89.3817 207.225 86.9354C206.879 87.7996 206.527 88.6837 206.175 89.3817C206.354 89.3817 206.354 89.5612 206.527 89.5612C208.627 86.7559 210.9 84.13 212.999 81.318C212.82 81.1518 212.647 80.9724 212.468 80.9724C211.604 81.8498 210.9 82.7273 210.022 83.6049C209.85 83.4254 209.677 83.2525 209.491 83.2525C211.252 80.9723 212.999 78.6988 214.741 76.073C215.093 76.6048 215.445 77.2962 216.136 78.6988C216.847 76.9505 217.545 75.7273 218.063 74.4975C217.545 75.0293 216.847 75.5478 216.322 76.0796L215.79 75.5478L218.94 70.8279C222.263 66.0947 225.585 61.1887 228.908 56.4555C230.137 54.7072 231.699 53.3045 232.762 51.5495C236.085 44.9018 241.334 39.6368 245.348 33.5076C246.225 32.2844 247.448 31.2341 248.498 30.1837C249.362 29.1201 250.073 29.4791 250.771 30.3566C255.489 36.3129 260.207 42.4421 264.925 48.3985C268.433 52.786 271.929 56.9741 275.251 61.5344C279.272 67.1451 283.119 72.7491 287.146 78.3531C291.692 84.8347 296.237 91.3162 300.609 97.9639C307.255 107.783 313.547 117.595 320.193 127.4C325.09 134.58 329.988 141.593 334.706 148.773H325.775C317.561 148.606 309.162 147.908 300.948 148.254C289.758 148.786 278.395 150.009 267.204 150.886C253.037 152.116 238.696 152.283 224.542 152.283C219.459 152.283 214.388 152.994 209.325 153.346C203.198 153.692 197.25 154.044 191.13 154.21C183.953 154.569 176.976 154.742 169.799 154.922C165.772 155.095 161.579 154.922 157.207 154.922L157.213 154.888ZM357.784 235.459V237.041C357.612 237.041 357.439 237.221 357.087 237.221C356.389 234.761 355.691 232.128 354.814 229.675C353.066 224.59 351.139 219.504 347.989 214.957C344.481 210.058 341.344 204.986 337.836 199.9C336.972 198.67 335.736 197.62 334.686 196.576C331.011 192.541 327.336 188.333 322.618 185.362C315.621 180.974 308.451 177.298 300.756 174.14C298.656 173.276 296.735 172.212 294.642 170.989H298.828L328.732 170.457C335.204 170.291 341.504 170.291 347.969 169.939C349.538 169.939 350.415 170.471 351.292 171.867C352.86 174.493 354.435 177.118 356.183 179.751C356.362 180.097 356.714 180.615 356.714 181.147C356.714 185.003 356.714 189.031 356.887 192.887C357.053 196.915 357.419 200.771 357.578 204.8C357.578 208.828 357.226 213.029 357.406 217.231C357.585 223.194 357.758 229.33 357.758 235.446L357.784 235.459ZM169.62 176.799C177.84 176.447 185.701 175.922 193.755 175.57C200.035 175.217 206.514 175.038 212.8 174.692C215.425 174.526 217.877 174.36 220.495 174.692C217.704 176.101 214.9 177.504 212.455 179.252C209.305 181.353 206.341 184.152 203.185 186.432C200.028 188.705 197.23 191.511 194.612 194.489C191.29 198.511 187.615 202.014 184.113 205.87C181.654 208.675 178.863 211.301 176.77 214.279C173.8 218.135 171.175 222.323 168.377 226.71C169.254 210.065 170.304 193.605 169.6 176.786L169.62 176.799ZM283.817 345.319C278.215 346.715 272.454 348.297 266.672 348.995C261.782 349.7 256.705 349.527 251.634 349.527C247.076 349.527 242.703 349.354 238.158 348.995C233.088 348.477 228.018 347.952 223.12 345.672C218.914 343.744 214.548 341.995 210.361 339.888C206.148 337.787 201.955 335.341 198.799 331.485C196.539 328.673 193.383 326.4 190.585 323.947C191.117 326.047 192.333 327.802 194.26 329.026C193.383 330.076 192.16 329.557 190.406 326.746C189.888 327.098 189.363 327.277 189.01 327.45C189.542 326.22 190.06 324.991 190.585 323.947C189.888 322.551 189.01 320.969 188.313 319.559C186.917 317.286 185.522 314.839 184.292 312.559C183.94 312.027 183.94 311.509 183.595 310.984C182.717 309.933 181.84 308.876 181.136 307.826C179.74 305.732 178.518 303.458 176.77 301.351C176.77 301.883 176.949 302.402 176.949 303.106C176.77 303.106 176.597 303.279 176.597 303.279L172.916 294.344C172.743 294.344 172.743 294.344 172.57 294.517L175.713 306.084C175.541 306.084 175.368 306.251 175.182 306.251C174.67 305.559 174.145 304.855 173.786 303.99C173.441 302.581 172.391 302.581 171.527 303.106C170.995 303.458 170.643 304.682 170.823 305.207C172.052 308.185 173.447 311.163 174.85 314.141C175.195 315.192 175.547 316.069 176.072 317.12C176.252 317.472 176.777 317.818 176.777 318.343C177.481 319.739 178.006 321.135 178.877 322.371C180.451 324.472 182.199 326.573 183.774 328.673C185.336 330.774 186.731 333.061 188.133 335.155C188.306 335.507 188.831 335.507 188.997 335.687C189.881 338.313 192.851 340.234 194.951 339.183C195.483 343.212 199.849 344.615 201.596 348.47C199.496 347.593 197.928 346.895 196.526 346.19C196.347 346.363 196.347 346.536 196.167 346.888C198.267 347.938 200.367 348.989 202.281 350.212C204.042 351.276 205.789 352.319 207.364 353.536C209.464 355.464 211.916 356.527 214.873 357.219C214.714 356.687 214.541 356.507 214.541 356.507C219.432 358.788 224.509 361.241 228.35 363.155C210.162 363.514 190.751 363.866 170.637 364.219C170.637 360.895 170.464 357.737 170.464 354.407C170.464 353.011 170.809 351.781 170.63 350.378C170.098 342.334 170.098 334.264 169.055 326.38C168.012 317.977 168.012 309.741 168.191 301.318C168.357 296.778 168.012 292.051 167.832 287.491C167.832 281.361 167.832 275.392 168.018 269.276C168.018 268.398 168.371 267.7 168.723 266.816H169.254C169.42 267.175 169.254 267.7 169.587 267.88C170.118 268.412 170.995 269.276 171.348 269.103C172.391 268.398 173.966 267.707 174.318 266.643C175.182 264.549 175.541 262.269 175.541 260.168C175.541 258.6 176.245 257.549 176.936 256.492C177.295 255.96 177.468 255.442 177.82 254.744C177.122 254.212 176.424 253.866 175.547 253.168C176.252 251.241 176.079 248.96 178.704 247.917C179.049 247.737 179.049 246.853 179.235 246.335C179.402 244.919 179.568 243.343 179.754 241.947C180.099 242.479 180.285 242.645 180.618 242.991C180.804 242.645 180.976 242.459 180.976 242.459C180.976 241.768 180.804 240.365 180.976 240.365C183.076 240.013 182.199 237.739 183.249 236.689C183.415 236.503 183.07 235.977 183.07 235.625C183.07 235.279 183.07 234.761 183.242 234.761C185.681 234.229 185.336 231.603 186.911 230.373C187.442 230.021 187.608 229.509 188.306 228.625C189.702 231.071 187.256 232.301 187.083 234.05C190.047 232.301 190.924 228.1 189.177 226.87C189.874 226.338 190.572 225.647 191.104 224.942C193.031 222.842 195.117 220.914 196.872 218.813C198.101 217.244 198.799 215.316 200.021 213.741C200.726 212.863 202.121 212.165 203.171 211.633C206.321 209.892 209.285 207.964 211.212 204.986C211.564 204.633 212.089 204.288 212.607 203.935C213.139 203.583 214.189 203.583 214.362 203.058C214.541 202.712 214.016 201.835 213.664 201.31C214.355 200.957 215.059 200.259 216.455 199.555C215.923 200.605 215.757 201.31 215.405 202.014L216.269 202.878C217.85 201.655 220.296 200.259 221.871 199.209C221.871 199.043 220.994 198.345 220.994 198.345C219.95 198.876 218.375 199.741 216.807 200.445C217.139 199.913 217.139 199.568 217.339 199.395C219.778 197.819 222.223 196.244 224.848 195.007C230.961 192.215 237.088 189.41 243.208 186.784C244.258 186.252 245.667 186.611 246.883 186.611C247.402 186.611 247.747 186.611 248.279 186.439C251.07 185.561 253.874 184.684 256.672 183.979C257.888 183.633 259.283 183.46 260.526 183.46C265.755 183.627 271.005 183.627 276.248 183.979C278.521 184.152 280.621 184.677 282.721 185.375C285.339 186.259 288.136 187.482 290.588 188.699C293.559 190.294 296.356 192.036 299.161 193.964C304.231 197.288 308.949 200.97 314.019 203.949C318.917 206.927 322.764 210.955 325.914 215.516C329.768 220.94 334.134 225.846 335.882 232.501L338.5 244.068C339.032 246.168 340.254 248.269 339.729 250.715C338.846 255.103 338.148 259.657 337.45 264.037C337.105 265.799 336.752 267.561 336.932 269.289C337.264 274.74 335.171 279.46 333.078 284.366C332.373 285.942 331.323 287.524 330.453 289.272C330.626 289.445 331.676 289.977 331.848 289.977L333.423 286.826C333.603 286.826 333.603 286.826 333.775 287.005C332.898 289.452 332.2 292.084 331.317 294.537C329.23 299.968 327.13 305.572 324.505 310.824C323.11 313.802 320.651 316.255 318.91 319.067C317.169 321.514 315.767 324.14 314.019 326.42C312.444 328.348 310.876 330.275 308.77 331.671C304.052 335.175 299.154 338.678 294.084 341.484C290.941 343.411 287.266 344.462 283.771 345.339L283.817 345.319ZM190.605 336.012L190.432 336.192C190.067 336.019 189.542 335.846 189.196 335.494L184.997 329.179C184.651 328.66 184.465 328.135 184.651 327.437C186.578 330.415 188.505 333.22 190.599 336.012H190.605ZM299.387 360.011C307.248 356.687 313.72 351.967 319.654 346.529C320.538 345.652 321.409 344.781 322.459 344.069C329.808 339.522 335.217 333.214 340.121 326.207C345.717 318.15 349.392 309.043 353.943 300.46C354.289 299.756 354.635 299.064 354.987 298.533C354.635 318.502 356.914 338.12 359.532 357.917C339.776 358.615 319.661 359.313 299.38 360.017L299.387 360.011ZM476.7 354.759C476.527 355.111 476.168 355.464 476.002 355.823C475.822 355.464 475.822 354.939 475.65 354.227C474.6 357.039 472.327 355.637 470.752 355.637C461.316 355.816 451.694 355.816 442.244 355.816C433.154 355.816 423.89 355.816 414.8 355.976C411.823 355.976 408.673 356.674 405.696 356.853C398.533 357.199 391.362 357.385 384.192 357.551C383.661 357.551 383.142 356.687 382.265 355.982C382.092 356.335 381.734 356.86 381.215 357.558C381.029 357.212 380.684 356.866 380.331 356.341C380.159 356.873 379.979 357.392 379.8 357.737H379.295C378.943 355.291 378.245 353.017 378.245 350.558C378.245 345.306 378.776 340.054 378.943 334.789C379.122 332.343 378.943 330.069 378.943 327.783C379.647 328.314 380.172 328.667 380.87 329.179C381.215 328.494 381.567 327.969 381.92 327.45C381.92 327.45 381.567 327.264 381.215 326.918C381.547 326.739 381.906 326.387 381.906 326.214C382.079 325.682 382.438 325.163 382.438 324.818C382.438 323.588 382.079 322.537 381.906 321.494C382.079 321.494 382.252 321.494 382.438 321.308L383.481 326.559H384.013C383.308 325.343 385.581 324.286 383.661 322.89C383.488 322.71 383.833 321.66 383.833 321.135C383.302 320.091 382.97 319.041 382.438 317.638C382.611 317.465 383.136 317.286 383.661 317.106C382.963 316.761 382.438 316.415 381.913 316.242C383.661 314.66 383.661 313.782 382.086 312.034C382.445 311.868 382.79 311.868 382.79 311.702C382.79 310.12 382.79 308.544 382.445 306.982C382.092 305.214 382.976 303.126 380.345 302.062C380.517 302.594 380.697 302.94 381.042 303.458C381.042 303.458 380.511 303.638 379.992 303.99C377.72 301.883 379.129 299.071 378.597 295.927C379.82 296.279 380.697 296.631 381.567 296.99C381.215 295.754 380.345 294.351 379.82 292.776H379.109V281.209C379.109 281.388 380.331 281.388 381.036 281.568C381.036 281.388 381.202 281.215 381.202 281.036C380.67 280.338 379.973 279.64 379.275 278.762L379.627 278.41C378.232 276.668 378.929 274.222 378.929 273.69V261.425C380.684 263.18 378.065 265.453 380.684 266.504V264.755H380.504C380.331 262.13 380.331 259.504 380.159 256.871H379.813C379.634 257.23 379.634 257.403 379.454 257.755H379.109L380.159 215.888C381.906 218.162 383.827 220.275 385.049 222.536C389.076 229.901 394.319 236.21 399.217 242.864C403.417 248.648 407.258 254.95 411.112 260.906C415.83 268.086 420.375 275.266 425.1 282.445C428.595 287.883 432.277 293.314 435.931 298.572C439.254 303.292 442.763 307.853 446.258 312.413C449.222 316.442 452.372 320.47 455.342 324.499C458.844 329.405 462.339 334.304 465.841 339.037C467.582 341.484 469.509 343.937 471.423 346.39C472.487 347.786 474.055 348.849 475.105 349.713C474.939 349.713 474.759 349.713 474.414 349.541C474.945 350.239 475.278 350.764 475.636 351.116C477.563 352.166 477.736 353.217 476.686 354.799L476.7 354.759ZM485.617 310.977V309.747C485.617 310.093 485.79 310.611 485.617 310.97V310.977ZM491.565 233.73C491.385 233.73 490.342 232.667 490.169 232.494C489.99 233.026 490.169 233.544 489.817 234.249C489.638 233.73 488.422 233.903 488.422 233.385C488.242 235.831 489.465 238.284 489.286 240.737C489.817 240.385 491.91 240.205 492.435 239.687C492.615 239.86 492.967 240.033 493.14 240.033C489.638 242.665 490.515 245.284 492.09 248.276C492.435 248.967 493.485 250.37 492.435 251.772C492.09 252.125 492.615 253.168 492.788 254.053H493.299V254.385L491.724 254.917C491.379 254.385 489.286 253.348 489.286 252.457V261.405C491.033 261.937 491.033 264.383 491.731 265.613C492.096 265.081 492.263 264.729 492.442 264.217L492.621 264.377C492.442 265.427 492.269 266.477 491.917 267.534C491.571 269.103 491.219 270.506 491.053 272.081C491.053 272.254 491.385 272.613 491.385 272.779C489.472 277.167 490.522 282.059 489.824 286.607C489.292 289.93 489.824 293.454 489.472 296.95C489.113 299.929 488.408 303.08 487.717 306.058C487.538 306.59 487.186 306.756 486.322 307.108C486.667 305.007 486.495 303.605 486.142 301.677C485.956 301.677 483.684 300.454 483.504 300.454C483.504 302.913 484.9 306.237 485.431 309.029C484.9 308.856 482.806 307.633 482.64 307.633C482.282 309.734 482.282 312.539 482.109 314.813C481.929 316.568 480.361 318.137 480.182 320.065C480.182 321.128 481.404 321.82 481.232 323.575H482.627C482.627 320.078 484.209 316.927 484.209 313.244H484.727C484.906 313.596 485.431 313.949 485.259 314.121C484.906 316.049 484.195 318.15 484.381 320.078C484.381 321.128 485.245 322.178 484.913 323.402C484.554 324.465 484.381 325.509 484.202 327.085C484.023 326.207 483.85 325.861 483.85 325.336C483.677 325.336 482.102 325.157 481.923 325.157C481.75 326.207 483.152 327.257 482.973 328.135C482.8 328.308 482.627 328.308 482.275 328.487L476.507 320.071C471.948 313.423 467.403 306.756 462.858 299.929C461.628 298.174 460.578 296.425 459.701 294.677C454.285 285.383 448.338 276.449 441.693 267.867C436.629 261.392 432.589 254.372 427.871 247.558C423.512 241.076 419.139 234.768 414.767 228.279C413.192 226.185 411.271 224.257 409.869 221.977C405.331 214.798 401.297 207.439 396.765 200.259C392.911 194.296 388.724 188.513 384.697 182.736C383.302 180.808 381.906 178.701 380.498 176.6C380.325 176.268 380.152 175.915 380.152 175.39C379.8 171.534 379.448 167.679 379.275 164.002C379.275 160.499 379.627 156.996 379.627 153.313V150.162C379.627 149.284 379.793 148.586 379.793 147.702C379.959 147.536 380.139 147.184 380.311 147.011C375.241 147.011 369.992 146.825 364.921 147.011C361.599 147.177 359.851 145.774 357.578 143.321C350.933 135.79 346.036 127.207 340.268 119.15C334.845 111.439 329.25 103.9 323.655 96.3685C319.103 90.2393 314.551 84.2829 310.012 78.1537C304.935 71.147 300.045 64.1403 294.795 57.1336C288.495 48.7309 282.023 40.3148 275.557 31.9121C272.567 28.0564 269.244 24.3802 265.922 20.3451C268.201 20.7041 270.307 21.0497 272.401 21.2292L280.8 21.761C287.093 22.2729 293.386 22.6252 299.672 23.4894C304.922 24.2008 310.172 25.2511 315.594 26.122C327.143 28.0498 338.507 31.2075 349.524 34.8837C355.997 36.9843 362.283 39.7897 368.596 42.4155C382.75 48.1991 396.22 55.2058 409.51 62.5581C413.697 64.8383 416.155 68.5145 419.292 71.845C423.844 76.5782 428.396 81.3047 432.762 86.2041C437.825 91.9876 442.543 97.944 447.448 103.9C451.813 109.152 456.352 114.404 460.738 119.669C462.133 121.244 463.197 123.172 464.406 124.92C467.197 129.128 470.353 133.164 472.799 137.711C474.54 141.048 475.59 144.904 476.813 148.58C478.554 154.011 480.308 159.263 482.062 164.694C483.278 168.722 484.322 172.937 485.199 177.125C485.903 179.937 485.73 182.909 486.594 185.701C487.657 189.397 486.594 193.412 487.657 197.102C487.824 197.454 487.99 197.979 488.176 198.331C488.874 199.023 489.398 199.727 488.349 200.778C488.182 200.951 488.182 201.642 488.349 202.174C488.707 201.828 488.88 201.476 489.232 200.951C489.232 201.303 489.398 201.482 489.398 201.649C489.398 202.34 489.219 203.045 489.398 203.743C489.398 204.088 489.744 204.607 489.917 204.966C490.269 204.607 490.615 204.434 491.312 203.902C492.887 209.865 493.067 215.822 493.067 221.951C493.067 227.734 494.11 233.518 491.671 239.122C492.189 237.194 490.967 235.432 491.492 233.684L491.565 233.73Z" fill="white" fill-opacity="0.7"/>
<path fill-rule="evenodd" clip-rule="evenodd" d="M354.121 71.6425C354.287 71.6425 354.466 71.822 354.466 71.822L354.287 71.6226C354.287 71.4564 354.287 71.4564 354.114 71.6226L354.121 71.6425ZM381.745 244.723C379.818 246.119 377.891 247.349 375.445 247.874C375.259 247.701 375.259 247.521 375.086 247.342C377.014 246.119 379.107 244.896 381.034 243.666C381.213 243.998 381.565 244.357 381.738 244.709L381.745 244.723ZM53.8591 7.34575C55.7862 4.90603 57.7133 2.45302 59.7999 1.21724e-05C59.966 0.172853 61.3615 0.531827 61.5409 0.698021C59.6138 3.15768 56.9889 6.48154 55.0685 9.10739C54.7097 8.75506 54.1847 7.53188 53.8391 7.35239L53.8591 7.34575ZM4.18646 93.2011C2.79097 90.2229 1.39548 87.0653 -2.53493e-07 84.0938C0.172774 83.9143 1.39549 83.3891 1.56826 83.3891C3.49536 86.1811 4.35923 89.505 5.768 92.4965C5.768 92.4965 4.37252 93.1945 4.1931 93.1945L4.18646 93.2011ZM48.7888 9.10739C47.7389 10.6896 46.6889 12.4445 45.639 14.0267C45.4662 13.8406 43.5391 14.7181 43.3664 14.5452C44.4163 12.9697 47.0345 10.1577 48.0844 8.58887C48.2638 8.76171 48.4366 8.94119 48.7888 9.12068V9.10739ZM363.039 251.916C363.205 251.916 363.205 251.743 363.384 251.743C364.607 251.916 366.002 252.088 367.405 252.088C365.119 253.664 363.717 253.484 363.019 251.916H363.039ZM49.1211 16.4664C49.3071 15.9346 49.6527 15.4161 50.0049 14.8909C50.3504 14.8909 50.8687 14.7114 50.8687 14.7114C51.5798 13.4882 51.5798 12.6107 52.2775 11.5604C52.1047 11.3876 51.9253 11.3875 51.7459 11.2081C50.7026 11.926 49.6527 12.8035 48.6027 13.5015C48.9549 13.8472 48.9549 14.0334 48.9549 14.379C47.5595 14.1995 47.0278 14.9109 46.3301 16.8254C46.1573 17.3572 45.2802 17.5301 44.403 18.2214C44.2302 18.5804 44.0575 19.4579 43.7053 20.3288L43.8847 20.5149C43.5325 20.8672 43.0075 21.0467 43.0075 21.0467C41.9576 22.0904 40.7349 22.9746 39.6849 24.0182C39.5122 24.5501 39.3394 25.0686 39.3394 25.5938C40.5687 24.3706 42.662 22.0904 44.2369 20.6877L44.4163 20.8672C45.114 19.8169 45.639 18.7665 46.3434 17.7162C46.5095 17.889 46.5095 18.0619 46.6889 18.248C46.1573 19.644 45.639 21.2129 45.114 22.6156C44.7486 22.7884 44.2236 23.1474 44.2236 22.9679C43.5258 23.4997 43.0009 24.1911 42.2965 24.7163L39.1533 26.8169C37.4056 28.3924 35.658 29.7885 33.7309 31.3706C32.5082 33.2985 31.2854 35.0468 29.8767 37.327C31.9832 36.7952 32.5082 37.6793 32.3354 39.4343C34.7808 39.78 34.9602 37.8588 35.658 36.4561C35.8307 36.0972 36.0102 35.3925 36.3557 35.2197C37.9306 33.8236 39.6783 32.6004 41.426 31.1978C41.7782 30.8454 41.7782 30.1341 41.7782 29.6156C41.7782 29.4428 40.8944 29.4428 40.3694 29.2633C41.9443 27.5083 44.2236 24.5434 45.7918 22.6156C46.669 22.0837 47.5395 21.3791 47.5395 20.8539C47.3667 18.9261 48.5895 18.4076 49.9982 17.7029C49.2938 17.1711 49.1144 16.6592 49.1144 16.4864L49.1211 16.4664Z" transform="translate(25.7061 230.214)" fill="white" fill-opacity="0.7"/>
<path fill-rule="evenodd" clip-rule="evenodd" d="M61.0518 146.968C60.3541 148.191 59.6563 149.241 58.9586 150.471L57.9087 149.939C57.2109 153.961 54.7589 157.465 52.3134 158.163C53.0112 158.515 53.7089 158.867 54.2405 158.695C54.7589 158.515 55.1044 157.631 55.4566 157.112L60.1747 150.279L61.7562 147.646L61.0585 146.948L61.0518 146.968ZM2.82688 223.869C3.70404 223.869 4.5812 224.042 5.61785 224.042C5.61785 223.344 6.50165 223.51 6.50165 222.819H7.03327C7.03327 223.696 7.20604 224.394 7.20604 225.278H3.53791C3.35849 225.099 2.66075 224.042 2.83352 223.869H2.82688ZM1.43139 215.812C0.899779 215.28 0.0359086 214.761 0.0359086 214.236C-0.143511 213.545 0.381456 212.674 0.899779 211.797C1.25862 213.02 1.43139 214.07 1.77694 215.3C1.59752 215.466 1.42475 215.646 1.42475 215.818L1.43139 215.812ZM5.80391 204.597C6.50165 206.365 7.1994 208.293 7.90378 210.048C7.73101 210.048 6.68107 210.58 6.5083 210.746C5.81056 208.991 4.93339 207.063 4.23565 205.315C4.40843 205.142 5.45836 204.61 5.81056 204.61L5.80391 204.597ZM395.078 372.08C395.942 371.734 396.992 371.548 398.4 371.216C396.819 372.432 395.596 373.31 394.546 374.36C394.367 374.187 394.194 374.008 394.014 374.008C394.367 373.31 394.719 372.785 395.078 372.08ZM180.133 1.92784C181.176 1.22318 182.06 0.698014 183.104 2.63734e-06L183.449 0.345685C182.386 1.74171 181.522 3.13773 180.293 4.89937C180.12 3.68284 180.12 2.97153 179.94 2.10733C179.768 2.10733 179.94 2.10733 180.12 1.93449L180.133 1.92784ZM231.367 90.562C232.942 89.8573 234.517 89.166 236.438 88.2818C236.265 89.3322 236.265 90.0368 236.265 90.7415C235.733 90.562 235.036 90.3825 234.511 90.3825C233.461 90.562 231.534 91.9647 230.656 92.1375C230.49 92.1375 231.361 90.7415 231.361 90.562H231.367ZM362.543 239.112C362.889 240.86 366.211 241.738 362.889 243.486C363.42 243.852 363.932 244.018 364.457 244.377C364.457 244.557 364.284 244.909 364.111 245.082C363.759 245.248 363.061 245.6 362.716 245.414C362.536 245.414 362.184 244.723 362.184 244.37C362.184 242.795 362.364 241.219 362.536 239.119L362.543 239.112Z" transform="translate(17.2827 97.7847)" fill="white" fill-opacity="0.7"/>
</svg>
