<svg width="774" height="876" viewBox="0 0 774 876" fill="none" xmlns="http://www.w3.org/2000/svg">
<path d="M657.9 580.2L352.8 752.8V618.4L542.9 513.8L657.9 580.2ZM678.8 561.3V200.4L567.2 264.9V496.9L678.8 561.3ZM20.9 580.2L326 752.8V618.4L135.8 513.8L20.9 580.2ZM0 561.3V200.4L111.6 264.9V496.9L0 561.3ZM13.1 177L326 0V129.9L125.5 240.2L123.9 241.1L13.1 177ZM665.7 177L352.8 0V129.9L553.3 240.1L554.9 241L665.7 177Z" transform="translate(47 61.5)" fill="white" fill-opacity="0.7"/>
<path d="M187.6 434.6L-6.10352e-06 331.4V127.1L187.6 235.4V434.6ZM214.4 434.6L402 331.5V127.1L214.4 235.4V434.6ZM12.7 103.5L201 -3.05176e-06L389.3 103.5L201 212.2L12.7 103.5V103.5Z" transform="translate(185.4 214.7)" fill="white" fill-opacity="0.35"/>
</svg>
